<?xml version="1.0" encoding="utf-8"?>
<!-- Generator: Adobe Illustrator 24.0.0, SVG Export Plug-In . SVG Version: 6.00 Build 0)  -->
<svg version="1.1" id="Layer_1" xmlns="http://www.w3.org/2000/svg" xmlns:xlink="http://www.w3.org/1999/xlink" x="0px" y="0px"
	 viewBox="0 0 1920 138" style="enable-background:new 0 0 1920 138;" xml:space="preserve">
<style type="text/css">
	.st0{fill:#453188;}
</style>
<path class="st0" d="M1924.4,91.55c1.74-1.57,3.67-2.84-0.07-3.91c-2.05-0.59-0.33-2.68,0.06-3.29c1.31-2.1,0.86-2.88-1.38-3.35
	c-1.44-0.3-2.2-1.16-1.41-2.74c0.58-1.15-0.09-2.64,0.13-3.41c1.02-3.57-1.72-6.72-0.73-10.16c0.2-0.69,0.78-1.4-0.1-2.32
	c-1.42,2.03-2.37,1.76-3.23-0.53c-0.65-1.73-1.56-1.01-2.02,0.27c-0.44,1.26-0.93,2.55-1.06,3.87c-0.45,4.41-4.48,6.96-5.38,11.11
	c-0.24-0.02-0.48-0.04-0.72-0.07c0-2.68-0.07-5.36,0.02-8.04c0.09-2.74,2.56-3.88,4.06-5.66c0.36-0.43,1.17-0.78,1-1.3
	c-1.1-3.57,2.11-6.27,1.83-9.96c-2.12,1.25-3.21,3.22-4.71,5.42c-0.15-3.39-1.59-1.45-2.66-0.97c-0.6-1.17,0.77-2.42-0.29-3.34
	c-1.02-0.9-1.87,0.8-3.1,0.25c1.28-2.47,0.26-5.23,1.01-7.81c0.18-0.63-0.13-1.09-0.7-1.42c-0.95-0.56-1.01-1.33-0.41-2.19
	c1.38-2.01,0.89-4.41,1.77-7.12c-2.33,1.95-4.61,3.15-4.5,6.13c0.02,0.47-0.37,0.95-0.92,0.93c-0.68-0.02-0.53-0.59-0.6-1.06
	c-0.19-1.34-0.27-2.66,0.28-3.86c-0.99-1.06-2.36,1.42-2.65-0.3c-0.24-1.48-1.73-3.3-0.41-4.53c2.9-2.73,2.14-6.95,4.45-9.84
	c0.27-0.34,0.37-0.89-0.13-1.38c-2.3,0.56-3.06,3.02-5.33,4.34c-0.39-2.89-1.6-5.44-0.65-8.37c0.56-1.73,0.03-2.81-1.35-4.1
	c-0.19-0.17-0.05-0.69-0.07-1.05c-0.14-3.25-0.26-6.51-0.42-9.76c-0.03-0.66-0.07-1.37-1.17-1.79c0,3.84,0,7.57,0,11.14
	c-1.29,0.76-1.36-0.86-2.29-0.57c-0.05,0.2-0.26,0.53-0.17,0.69c1.4,2.52,1.19,5.09,0.31,7.69c-0.48,1.41,0.94,2.72,0.18,4.18
	c-0.34,0.67,0.47,1.94-0.87,2.07c-1.02,0.1-1.37-0.87-1.8-1.63c-0.36-0.62-0.42-1.53-1.91-1.68c0.48,4.41,3.21,8.17,3.09,13.38
	c-1.47-4.08-3.09-7.2-6.81-9.08c0.02,4.05,4.71,7.94,0.37,11.85c-1.12-1.41,0.07-3.54-0.57-5.39c-1.42,0.06-1.65,1.73-2.89,2.17
	c-0.25-1.55,0.86-3.02,0.15-4.55c-1.46-0.12-1.68,1.32-2.56,2.2c-1.2-1.68-1.19-3.47-1.27-5.26c-0.05-1.04-0.12-2.2-1.43-2.55
	c-1.54-0.41-1.55,0.97-2.13,1.78c-1.3,1.8-1.53,3.72-1.66,5.92c-0.16,2.51-1.74,4.89-0.5,7.58c0.28,0.62-0.46,0.83-1.15,0.55
	c-0.79-0.33-1.65-0.49-2.44-0.82c-2.03-0.85-3.01-1.18-2.16,1.87c0.38,1.37,0.31,4.14-2.44,4.67c0.18,1.33,2.57,2.62-0.06,4.05
	c-0.35,0.19,0.27,2.12,0.39,3.25c0.11,0.97,0.25,2.05-0.95,2.43c-0.89,0.28-1.91,0.72-2.77,0.07c-0.89-0.66-0.3-1.59-0.13-2.4
	c0.91-4.33-0.06-8.24-2.56-11.82c-0.47-0.68,0.08-1.29,0.08-1.93c0.01-1.11-0.36-2.05-0.91-2.99c-0.81-1.38-1.52-3.89-2.83-3.56
	c-1.77,0.44-1.27,3.07-1.6,4.76c-0.14,0.7,0.34,1.76-0.63,1.86c-1.29,0.13-0.56-1.07-0.7-1.67c-0.27-1.22-1.31-1.03-2.09-1.07
	c-1.24-0.06-2.49,0.15-3.74,0.14c-0.71,0-1.63-0.4-1.08-1.19c2.17-3.14-0.55-6.3,0.2-9.4c0.78-3.24-2.55-4.98-2.78-7.94
	c-0.2-2.52,0.31-4.87,0.67-7.29c0.05-0.36,0.44-0.83,0.32-1.02c-2.09-3.11-0.5-6.43-0.61-9.65c-5.92,1.83-6.83,3.17-5.89,9.04
	c0.17,1.06-0.39,1.54-0.88,2.25c-0.98,1.44-2.61,2.73-1.38,4.85c0.37,0.63-0.15,1.01-0.69,1.36c-0.37,0.24-0.63,0.67-0.93,1.01
	c2.41,1.77,0.51,3.26-0.21,4.91c-0.26,0.6,0.43,1.24,1.14,1.44c0.92,0.26,2.01,0.3,1.85,1.7c-0.13,1.18-1.07,2.33-1.87,2.33
	c-2.74,0-2.42,2-2.56,3.55c-0.11,1.27,0.33,2.21-1.77,2.31c-1.13,0.05-2.03,2.05-3.95,1.71c-0.82-0.14-0.67,0.98-0.27,1.56
	c0.49,0.71,1.11,1.33,1.62,2.03c1.98,2.71,1.08,6.32-1.83,8.02c-1.26,0.74-1.79,0.47-1.88-0.85c-0.14-2.01-0.67-3.93-1.19-5.86
	c-0.21-0.78-0.11-1.47-1.3-1.39c-1.13,0.08-1.09,0.72-1.2,1.53c-0.31,2.25-1.74,4.28-1.25,6.72c0.09,0.44-0.33,1.13-0.72,1.49
	c-2.81,2.61-5.68,5.16-9.31,6.64c-1.09,0.44-1.81-0.46-1.49-1.01c1.52-2.62,0.68-4.25-1.7-5.68c-0.44-0.27-0.23-1.48-0.53-2.17
	c-0.64-1.49-2.12-2.77-0.44-4.58c0.41-0.44-0.03-1.89-0.91-1.72c-2.62,0.51-1.73-1.68-1.57-2.33c0.57-2.31-2.65-2.49-2.27-4.52
	c-1.28,0.4-2.93,0.63-3.07,2.2c-0.14,1.51-0.9,2.32-2.01,2.9c-1.71,0.91-2.08,2.13-1.2,3.77c1.28,2.39,0.46,4.05-1.79,5.17
	c-0.52,0.26-1.31,0.4-1.25,1.01c0.27,2.77-1.73,4.5-2.81,6.66c-0.94,1.88,1.38,2.53,1.74,4.22c-1.2,0.45-2.35,1.17-3.47,1.85
	c-2.39,1.45-3.44,2.75-1.84,5.49c1.53,2.62-2.1,1.94-2.51,3.52c1.49-7.05-2.6-12.81-3.83-19.9c-1.99,3.91-2.41,7.42-3.06,10.87
	c-0.09,0.46-0.05,0.94-0.07,1.41c-2.85-1.13-2.33,2.11-3.73,2.86c-0.54,0.29-1.16,1.09-1.77,0.42c-0.66-0.73-0.39-1.83,0.21-2.37
	c1.85-1.65,2.33-3.88,3.01-6.31c-1.6-0.13-4.23,0.48-2.5-2.64c0.1-0.18-0.07-0.77-0.15-0.77c-4.44-0.46-3.83-6.1-7.51-7.32
	c-0.46-0.15-0.31-0.65-0.25-1.01c0.46-2.76-0.78-4.99-2.23-7.17c-2.89,1.47-3.65,4.06-3.7,7.03c-4.16,1.39-0.4,4.74-1.91,6.98
	c-1.01-2.39-3.61-0.65-5.05-2.14c-0.7,0.79-0.39,1.43-0.14,2.03c1.63,3.92,1.25,4.52-3.09,4.77c-0.65,0.04-1.3,0.01-2.3,0.01
	c0.64-0.45,1.31-0.71,1.31-0.96c-0.01-3.04,2.42-4.74,3.71-7.07c0.83-1.5,0.16-2.45-1.56-2.81c-3.73-0.78-3.96-1.25-2.48-4.75
	c0.42-0.99-0.11-1.88-0.09-2.83c0.08-2.99-0.27-6.05,2.43-8.45c-1.98,0.67-4.28-0.44-5.44,1.88c-0.3,0.6-1.11,0.86-1.76,0.35
	c-0.63-0.49-0.53-1.32-0.26-1.87c0.76-1.54,2.13-2.85-0.01-4.56c-0.64-0.51,0.56-1.88,0.9-2.87c0.21-0.62,0.96-1.39-0.39-1.75
	c-2.85-0.75-2.99-1.22-1.19-3.52c0.34-0.44,0.92-0.74,0.84-1.49c-0.09-0.08-0.29-0.33-0.36-0.3c-2.49,1.2-2.85,0.15-2.84-2.22
	c0.01-2.16,0.54-4.57-1.19-6.83c-1.44,2.5-0.76,5.09-1.34,7.43c-0.3,1.21,0.28,3.25-2.27,2.61c-0.61-0.15-0.92,0.4-0.64,0.92
	c1.63,3.1-0.23,6.2,0.3,9.16c-0.91,0.51-1.32-0.11-1.86-0.22c-1.56-0.33-2.82,0-1.86,1.8c1.32,2.46-0.6,5.25,1.15,7.67
	c0.54,0.75-0.65,1.72-1.26,2.42c-1.08,1.24-1.16,2.15,0.14,3.41c2.32,2.25,1.68,3.89-1.19,4.95c-1.93,0.71-3.94,0.73-5.84,1.34
	c-1.27,0.41-1.66,0.91-0.45,1.92c1.15,0.97,1.98,2.21,3.68,2.58c1.32,0.28,2.91,1.08,2.35,2.99c-0.48,1.64-1.23,2.7-3.5,2.45
	c-3.8-0.42-0.58,2.09-1.12,3.41c-2.36-0.98-2.89-3.11-2.83-5.07c0.09-2.7-0.94-4.91-2.35-6.92c-1.05-1.5-1.05-2.55,0.14-3.75
	c0.92-0.93,1.74-1.83-0.33-2.35c-0.88-0.22-1.26-0.81-1.2-1.71c0.06-0.91-0.47-1.63-1.22-1.75c-3.49-0.54-3.8-2.94-3.66-5.75
	c0.14-2.64-1.38-4.93-1.72-7.49c-0.13-0.99-1.19-0.92-1.88-1c-1.12-0.13-0.63,0.83-0.82,1.4c-0.98,2.86-1.1,5.85-1.51,8.8
	c-0.01,0.1,0,0.24-0.05,0.28c-2.06,1.34-2.58,2.86-0.77,4.86c0.31,0.35-0.32,0.85-0.82,0.92c-1.24,0.18-1.46,1.04-1.54,2.08
	c-0.03,0.47-0.18,1.3-0.35,1.32c-3.93,0.49-1.57,2.69-1.06,4.5c-1.41-0.38-2.89-1.08-3.79,0.19c-0.75,1.06,0.26,2.2,0.75,3.19
	c0.49,0.99,1.17,1.76-0.54,2.29c-1.51,0.47-0.56,1.25-0.02,1.9c1.2,1.43,3.03,1.57,4.59,2.27c0.73,0.33,1.94,0.45,1.73,1.59
	c-0.19,1.07-0.99,1.93-2.17,2.02c-1.91,0.15-3.83,0.19-5.75,0.24c-1.21,0.03-2.56-0.86-2.4-1.64c0.6-3.03-1.87-5.34-1.57-8.27
	c0.17-1.7-1.3-2.88-2.68-2.82c-1.39,0.06-1.16,1.76-1,2.84c0.74,5.16-1.57,9.89-1.97,14.88c-0.06,0.7-0.27,1.34-1.06,1.55
	c-2.73,0.71-1.96,1.94-0.59,3.41c0.59,0.63,1.99,1.26,1.19,2.27c-0.85,1.08-2.15,2.16-3.67,1.95c-1.44-0.2-0.85-1.69-1.11-2.63
	c-0.47-1.66-0.97-3.32-1.52-4.95c-0.35-1.04-1.21-1.6-1.78-0.38c-1.19,2.51-4.04,1.98-5.76,3.45c-0.19,0.16-0.84,0.09-1.03-0.11
	c-0.42-0.43-0.06-0.93,0.27-1.24c0.62-0.59,1.34-1.07,1.99-1.64c1.3-1.13,2.61-2.3-0.31-2.99c-1.15-0.27-0.98-1.12-0.75-1.82
	c1.09-3.17-1.1-5.82-1.48-8.76c-0.18-1.42-2.13,0.39-3.46-0.1c0.41-2.69-0.36-5.31-1.18-7.89c-0.25-0.77-0.64-1.75-1.72-1.69
	c-1.19,0.06-1.12,1.12-1.28,1.94c-0.22,1.12-0.03,2.09-1.94,2.34c-1.62,0.21-3.15,1.87-2.2,4.23c0.31,0.77,0.28,1.69,0.29,2.55
	c0.01,0.45-0.28,1.31-0.31,1.31c-2.06-0.38-2.44,1.46-3.5,2.47c-1.23,1.17-2.36,2.32-2.43,4.05c-0.04,1.06-0.49,1.79-1.07,2.58
	c-0.44,0.59-0.83,1.09-1.63,0.8c-0.86-0.31-0.91-1.1-0.56-1.67c1.29-2.09-1.89-2.43-1.53-4.11c-2.7,0.22-1.2-1.6-1-2.41
	c0.31-1.28,1.05-2.45,1.76-3.98c-2.89,0.54-3.27-1.25-3.08-3.57c-1.16,0.9-1.03,1.94-1.19,2.84c-0.31,1.7-1.14,3.1-2.45,4.13
	c-0.89,0.7-1.93,2.36-3.11,1.11c-1.21-1.28,0.46-2.13,1.31-2.94c0.73-0.7,1.33-1.48,1.08-2.53c-0.89-3.61,0.03-6.76,2.15-9.72
	c0.48-0.66,1.42-1.77,0.41-2.54c-0.79-0.6-1.47,0.6-2.22,0.94c-1.56,0.71-3.15,1.33-5,2.1c0.03-3.61,1.01-6.7,2.51-9.68
	c0.41-0.81,1.23-1.98,0.54-2.66c-0.91-0.88-1.59,0.47-2.33,0.93c-0.66,0.41-1.4,0.95-2.1,0.38c-0.6-0.48-0.59-1.32-0.6-2.13
	c-0.03-3.56,1.35-7.04,0.66-10.65c-1.44-0.04-1.5,1.8-2.87,1.88c-0.05-0.28-0.16-0.54-0.14-0.79c0.05-1.09,1.23-2.53,0.04-3.18
	c-1.35-0.74-1.34,1.52-2.5,1.94c-0.72-1.91-1.31-3.77-1.18-5.85c0.06-1,0-2.07-1.52-2.34c-1.57-0.28-1.3,0.93-1.76,1.64
	c-1.38,2.16-1.29,4.84-2.13,6.94c-1.21,3-0.57,5.46,0.15,8.76c-1.78-1.38-3.34-1.92-4.94-2.36c-1.01-0.28-1.9-0.17-1.53,1.16
	c0.63,2.29,0.38,4.16-1.73,5.62c-0.61,0.42,0.13,1.03,0.28,1.54c0.27,0.9,1.13,1.58-0.53,2.48c-1.39,0.76,0.14,2.54,0.25,3.87
	c0.13,1.55,2.12,4.2-1.92,2.5c-0.66-0.28-1.34,0.04-1.81,0.59c-0.55,0.64-0.15,1.28,0.14,1.87c0.39,0.79,0.94,1.5,1.77,1.83
	c2.82,1.13,4.37,3.65,6.7,5.84c-2.9-0.28-5.45,0-7.49-2.39c-0.62-0.73-2.76-0.48-4.1-0.19c-1.12,0.25-0.47,1.29,0,1.84
	c1.31,1.52,2.67,2.99,4.07,4.43c0.42,0.44,0.93,0.86,0.67,1.45c-0.29,0.65-1.07,0.46-1.55,0.32c-2.32-0.68-5.26,0.1-6.49-3.15
	c-0.61-1.62-1.48-0.62-1.88,0.38c-0.75,1.84-1.02,3.84-1.64,5.73c-0.33,1-0.77,1.91-1.19,2.84c-0.84,1.83-2.77,3.17-2.4,5.58
	c0.06,0.42-0.47,1.05-1.29,0.88c-0.47-3.48,2.34-6.63,1.18-10.34c-1.01,0.35-1.88,0.74-2.78,0.95c-0.67,0.15-1.55,0.83-2.05-0.14
	c-0.38-0.73,0.06-1.48,0.51-2.14c0.54-0.79,1.2-1.53,1.58-2.39c1.31-3.01,1.08-3.39-2.24-4.09c0.51-1.54,2.46-3.97-1.55-3.3
	c-0.41,0.07-0.78-0.23-0.75-0.67c0.17-3.15-2.35-4.53-4.21-6.3c-0.56-0.53-0.43-0.98-0.45-1.5c-0.06-1.54-0.15-3.02-1.04-4.43
	c-0.43-0.68-0.54-1.87-1.4-1.82c-0.71,0.04-1.61,0.79-1.99,1.47c-0.66,1.2-1.86,2.31-1.3,3.96c0.09,0.26,0.09,0.78-0.02,0.82
	c-3.67,1.52-1.48,4.43-1.64,6.78c-0.02,0.25-0.23,0.49-0.55,1.16c-0.83-3.11-3.61-1.46-5.16-2.86c-0.72,1.29,0,2.1,0.48,3.02
	c1.19,2.26,1.59,4.47-1.24,5.83c-1.18,0.56-0.95,1.43-1.05,2.37c-0.09,0.82-0.75,1.39-1.61,1.38c-1.21,0-0.53-0.91-0.64-1.47
	c-0.43-2.06-0.73-4.16-1.77-6.03c-0.28-0.5-0.65-1.04-1.31-0.97c-0.69,0.07-0.82,0.69-0.99,1.25c-0.19,0.63-0.29,1.69-0.67,1.81
	c-3.5,1.12-3.48,3.66-2.97,6.57c0.16,0.91-0.08,2.39-1.41,1.67c-0.91-0.49-2.75,0.69-2.87-2.01c-0.17-3.87-0.81-7.96-4.12-10.82
	c-0.99,1.15-2.06,2.18-2.03,3.94c0.02,1.34-1.17,2.32-2.29,2.01c-1.36-0.38-0.32-1.56-0.11-2.42c0.28-1.11,0.39-2.28,1.12-3.24
	c0.29-0.37,0.56-1.16,0.03-1.19c-3.09-0.13-1.65-1.31-0.7-2.52c0.79-1.02,0.14-1.37-0.84-1.36c-0.66,0.01-1.32,0.12-2.06,0.2
	c-0.25-0.9,1.56-2-0.35-2.8c-1.31-0.54-0.14-1.19,0.26-1.73c0.34-0.47,0.8-0.95,0.46-1.55c-0.44-0.78-1.16-0.41-1.8-0.28
	c-2.3,0.48-4.71,0.6-6.57,2.53c-0.38-1.23,0.06-2,0.37-2.79c0.61-1.6,2.57-3.37-0.66-4.46c-0.25-0.08-0.48-0.92-0.37-1.3
	c0.75-2.65-0.9-4.46-1.94-6.59c-0.78-1.61-2.02-1.7-3.22-1.69c-1.58,0.01-1.12,1.63-1.13,2.46c-0.01,2.11-0.88,3.89-1.52,5.78
	c-1.49,0.19-1.31-2.59-2.89-1.7c-1.79,1.01,0.37,2.61-0.3,4.05c-1.78-0.36-2.4-2.45-4.35-2.85c-0.49,2.1,0.14,4.22,0.74,5.98
	c0.52,1.53,0.21,2.97,0.51,4.43c0.37,1.8-1.54,2.74-3.38,1.8c-1.18-0.6-2.23-1.46-3.86-1.1c0.59,2.23,1.94,3.94,3.13,5.76
	c1.16,1.77,0.57,4.16,1.86,6.1c-3.01-1.06-6.17-1.04-8.92-2.92c-4.16-2.84-4.79-1.8-5.46,3.03c-0.45,3.28-2.82,4.29-4.29,6.34
	c-0.43,0.59-1.41,0.67-1.82,0.13c-1.14-1.52-4.56-2.13-2.22-5.18c0.25-0.32,0.36-1.06,0.17-1.37c-1.79-2.87-1.31-6.66-3.96-9.21
	c-1.37-1.32-1.27-3.16-0.66-4.89c0.49-1.4,0.44-2.57-0.78-3.64c-1.79-1.57-1.28-4.66-3.94-5.88c-0.8,1.72-2.48,3.05-1.82,5.37
	c0.15,0.55-0.61,1.14-1.22,1.48c-0.87,0.47-1.37,1.24-1.04,2.15c1.26,3.53-0.29,6.31-2.18,9.05c-0.31,0.45-0.43,1.05-0.53,1.59
	c-0.39,2.17-0.38,2.17-3.92,2.23c4.71-1.22,1.2-5.66,4.48-6.88c-0.95-1.25-1.86-0.51-2.64-0.67c-0.97-0.19-2.26,0.96-2.82-0.89
	c-0.46-1.51-1.35-2.87,0.64-4.01c2.63-1.52,2.58-4.44,3.31-6.93c0.27-0.91-0.48-1.02-1.17-1.24c-4.94-1.63-6.08-5.42-2.63-9.41
	c1.15-1.33,1.28-2.61,1.35-4.49c-1.78,1.16-3.06,2.14-5.31,1.45c-2.17-0.67-1.82,1.99-2.16,3.78c-1.37-1.3-3.32-1.8-1.46-4.02
	c0.98-1.17,0.46-2.77,0.08-4.18c-0.07-0.28-0.03-0.59-0.13-0.85c-0.43-1.09,1.78-2.7-0.08-3.13c-1.4-0.32-3.03,0.91-3.92,2.6
	c0.22-0.84,0.21-1.85,0.69-2.5c2.07-2.85,0.19-5.27-0.69-7.79c-0.11-0.31-0.54-0.7-0.83-0.71c-1.52-0.02-2.77-0.35-2.56-3.07
	c-1.59,2.73-2.67,4.52-0.93,6.74c-1.25,0.2-1.32-1.44-2.52-0.93c0.19,1.42,0.3,2.86-0.04,4.37c-0.31,1.37,0.53,2.78,1.29,4.37
	c-1.38,0.03-3.32-2.42-3.38-0.09c-0.05,1.93-2.13,1.23-2.06,2.8c0.08,1.92-1.21,2.53-3.19,1.75c0.21,1.16,0.39,1.99,0.5,2.83
	c0.1,0.76,0.12,1.53,0.2,2.51c-1.27-0.18-2.43-0.34-3.58-0.52c-0.61-0.09-1.24-0.89-1.81-0.12c-0.42,0.57,0.09,1.33,0.01,1.94
	c-0.2,1.56,3.46,2.07,1.25,3.64c-0.75,0.53-3.04,0.95-4.67-0.06c1.49,3.13,0.79,7.11,4.68,9.04c1.07,0.53,1.02,2.91,0.62,4.1
	c-0.4,1.2-1.81-0.13-2.78-0.18c-1.98-0.1-3.63-0.86-5.52-2.79c0.98,5.13-3.82,6.99-4.25,10.99c-0.75-1.63-0.85-3.17-0.5-5.1
	c-1.94,0.97-3.18,2.03-2.84-1.47c0.19-1.99,0.86-3.28,1.65-4.82c1.29-2.48,1.14-5.44,3.6-8.14c-3.39,0.36-3.81,2.9-6.18,4.16
	c0.14-8.17-2.11-15.67-2.58-23.46c-0.29,0.01-0.59,0.02-0.88,0.03c0,2.78,0.06,5.56-0.04,8.33c-0.02,0.7,0.86,2.53-1.44,1.59
	c-0.85-0.35-0.52,0.74-0.35,1.17c1.31,3.42-0.29,6.87,0.11,10.3c0.08,0.72,0.25,2.01-0.9,2.13c-0.87,0.09-0.94-1.07-1.29-1.72
	c-0.39-0.73-0.51-1.71-1.75-1.76c-0.69,1.71-0.03,3.1,0.9,4.5c0.41,0.61,0.95,1.46,0.2,2.09c-0.67,0.57-1.13-0.37-1.7-0.58
	c-1.11-0.42-1.92-2.46-2.91-1.61c-1.13,0.97,0.16,2.54,0.84,3.6c1.6,2.53,1.1,4.82-0.45,7.08c-1.04-0.53-0.6-3.06-2.01-2.47
	c-1.42,0.59,0.03,2.41-0.11,3.63c-0.43,3.79,2,6.87,2.32,10.46c0.14,1.6,2.21,2.11,2.58,3.71c0.13,0.55,0.76,1.32,0.58,1.56
	c-1.52,2.01-0.09,3.94,0.54,6.46c-6.1-2.86-5.96-9.83-10.88-13.04c0.08,1.84,1.55,3.92-1.05,4.97c-0.13,0.05-0.02,1.14,0.23,1.6
	c1.46,2.68,0.33,5.26-0.2,7.86c-0.2,0.96-0.67,1.7-1.79,1.02c-0.81-0.49-1.32-1.18-0.59-2.14c0.46-0.61,0.99-1.18,1.4-1.83
	c0.39-0.62,1.2-1.24,0.65-2.04c-0.53-0.77-1.21-0.11-1.8,0.13c-1.21,0.5-1.64,0.19-1.33-1.13c0.24-1.02,0.4-2.05,0.55-3.09
	c0.54-3.82-0.79-7.19-2.72-10.34c-1.37-2.23-3.58-1.15-5.45-0.91c-1.21,0.16-2.36,0.74-3.83,1.22c0.42-1.47,0.31-2.64,2.45-2.34
	c1.63,0.23,3.65-3.47,2.66-4.84c-1.12-1.55-1.93-3.42-3.63-4.53c-3.64-2.39-3.91-3.69-1.54-7.3c0.56-0.86,1.61-1.8,0.69-2.8
	c-1.14-1.24-2.07-0.02-2.91,0.7c-0.96,0.83-1.75,0.8-2.28-0.38c-0.41-0.91-1.45-0.85-2.16-1.63c1.64-0.18,2.82-0.87,3.41-2.34
	c0.76-1.91-0.76-2.47-1.9-3.33c-1.09-0.83-0.95-2.27-1.25-3.44c-0.38-1.43,0.02-2.99-1.59-4.07c-1.14-0.76,0.24-1.41,0.56-2.11
	c0.53-1.16,0.88-2.4,0.28-3.61c-0.63-1.29-1.67-0.26-2.57-0.25c0.34-1.89-0.08-3.75-0.05-5.62c0.02-1.51-2.25-2.37-2.38-4.24
	c-0.02-0.27-0.85-0.14-0.9,0.24c-0.23,1.73-2.7,2.21-2.28,4.39c0.18,0.95-0.89,1.65-1.67,2.21c-2.13,1.53-2.42,3.45-1.44,5.77
	c1.42,3.36,0.61,5.71-2.67,7.75c-0.5,0.31-0.69,0.7-0.61,1.17c0.58,3.57-1.5,6.34-2.79,9.35c-0.46,1.08-0.27,2.03,0.12,3.06
	c0.34,0.91,1.96,1.82,0.2,2.85c-1.02,0.6-2.07,2.65-3.27,0.12c-0.07-0.16-0.72-0.14-1.06-0.06c-0.88,0.22-1.93,1.12-2.53-0.12
	c-0.55-1.14,1-1.14,1.44-1.8c0.47-0.72,1.11-1.33,1.57-2.05c0.36-0.55,0.74-1.23,0.17-1.85c-0.48-0.53-1.07-0.21-1.59,0.02
	c-1.93,0.84-4.21,0.14-6.14,1.68c-0.45-1.78,0.06-3.14,0.41-4.49c0.13-0.51,0.86-0.95,0.38-1.53c-0.47-0.57-1.1-0.2-1.56,0.1
	c-1.78,1.14-2.24,0.55-2.38-1.4c-0.06-0.8-0.18-2.93-2.31-1.7c-0.73,0.42-1.07-0.1-0.99-0.81c0.07-0.66,1.16-1.36,0.02-1.95
	c-0.93-0.48-1.85-0.28-2.66,0.46c-0.4,0.36-0.77,0.92-1.53,0.6c-0.49-1.28,0.91-2,1.01-3.11c0.08-0.9,1.16-2.1-0.85-2.34
	c-0.97-0.12-0.43-0.81-0.19-1.3c0.37-0.74,1.3-1.21,1.07-2.24c-0.19-0.05-0.37-0.16-0.52-0.14c-1.03,0.18-1.48,2.18-2.5,1.38
	c-1.07-0.85,0.36-1.81,0.84-2.67c0.2-0.37,0.3-0.9-0.12-1c-1.65-0.4-1.16-2.04-2.01-3.32c-0.77,2.27-2.01,3.31-4.39,2.58
	c-1.41-0.43-1.06,0.91-1.07,1.71c-0.01,1.18,0.14,2.34-1.68,2.34c-1.17,0-0.61,0.8-0.42,1.45c0.62,2.15,2.4,3.89,2.32,7.21
	c-1.14-2.85-3.26-3.01-4.98-3.85c-0.43-0.21-0.92-0.43-1.35-0.1c-0.48,0.38-0.25,0.89-0.03,1.31c0.91,1.73,1.03,3.36,0.37,5.34
	c-0.47,1.41,0.46,2.97,2.33,3.58c-0.85,0.68-1.83,0.42-2.42,1.19c-0.5,0.65-1.22,1.47-2.19,0.96c-1.11-0.57,0.18-1.38,0-1.95
	c-0.42-1.34-1.59-2.75-2.85-1.91c-2.61,1.73-4.3,0.46-6.14-1.06c-0.28-0.23-0.65-0.34-1.69-0.86c1.52,4.48,3.98,7.57,5.96,11.18
	c-1.52,2.47-4.56,3.64-7.95,4.21c-0.76,0.13-0.78,0.46-0.66,1.39c0.58,4.3,3.42,6.47,6.97,8.12c0.14,0.07,0.2,0.3,0.35,0.54
	c-0.25,0.94-2.69,0.81-1.44,2.68c0.16,0.23-0.93,0.47-1.49,0.47c-1.34,0.01-2.68-0.03-4.01-0.08c-0.69-0.03-1.73-0.26-1.72-0.79
	c0.05-2.35-2.23-4.15-1.87-6.23c0.55-3.22-0.98-2.11-2.46-1.63c-0.72,0.23-1.43,0.49-2.46,0.85c1.31-4.53-0.5-8.34-1.9-12.22
	c-0.25-0.69-0.32-1.56-1.47-1.34c-1.09,0.21-1.43,0.95-1.4,1.88c0.04,1.18-0.17,2.3-0.57,3.39c-0.15,0.42-0.35,1.15-0.91,0.84
	c-3.05-1.66-1.4,1.16-1.9,2.01c-0.93-0.16-1.27-1.46-2.62-1.31c0.25,2.59,0.54,5.12,0.72,7.66c0.16,2.13-0.18,3.73-2.85,2.04
	c-0.27-0.17-0.84-0.26-1.03-0.1c-0.53,0.46-0.25,1.11,0,1.59c1.42,2.66,2.01,5.54,2.49,8.81c-2.23-1.06-4.31-2.04-6.46-3.05
	c-0.4,1.45,0.25,2.41,0.79,3.21c1.51,2.27,2.34,4.58,1.58,7.33c-0.36,1.3,0.36,2.19,1.4,2.9c0.55,0.38,1.22,0.89,0.59,1.61
	c-0.59,0.67-1.27,0.18-1.77-0.27c-1.72-1.55-3.59-2.82-6.15-3.5c-0.04,2.03,1.14,3.37,2.02,4.69c1.06,1.59,0.99,2.81,0.07,4.45
	c-0.62,1.09-2.45,2.01-1.62,3.43c1.13,1.94,1.9,4.25,4.13,5.39c0.33,0.17,0.66,0.35,1.02,0.54c-0.84,2.19-2.53,1.7-4.13,1.59
	c-0.83-0.06-1.88-0.27-2.35,0.64c-0.53,1.03,0.38,1.64,1.08,2.06c1.77,1.09,0.61,2.27-0.01,3.12c-0.87,1.18-1.01,2.16-0.32,3.42
	c0.53,0.96,1.81,1.89,1.01,3.07c-0.82,1.2-2.15,0.23-3.28,0.3c0-4.22,0-8.45,0-12.67c-1.11-0.49-2.23-0.98-3.6-1.58
	c1.74-1.57,3.67-2.84-0.07-3.91c-2.05-0.59-0.33-2.68,0.06-3.29c1.31-2.1,0.86-2.88-1.38-3.35c-1.44-0.3-2.2-1.16-1.41-2.74
	c0.58-1.15-0.09-2.64,0.13-3.41c1.02-3.57-1.72-6.72-0.73-10.16c0.2-0.69,0.78-1.4-0.1-2.32c-1.42,2.03-2.37,1.76-3.23-0.53
	c-0.65-1.73-1.56-1.01-2.02,0.27c-0.44,1.26-0.93,2.55-1.06,3.87c-0.45,4.41-4.48,6.96-5.38,11.11c-0.24-0.02-0.48-0.04-0.72-0.07
	c0-2.68-0.07-5.36,0.02-8.04c0.09-2.74,2.56-3.88,4.06-5.66c0.36-0.43,1.17-0.78,1-1.3c-1.1-3.57,2.11-6.27,1.83-9.96
	c-2.12,1.25-3.21,3.22-4.71,5.42c-0.16-3.39-1.59-1.45-2.66-0.97c-0.6-1.17,0.77-2.42-0.29-3.34c-1.02-0.9-1.87,0.8-3.1,0.25
	c1.28-2.47,0.26-5.23,1.01-7.81c0.18-0.63-0.13-1.09-0.7-1.42c-0.95-0.56-1.01-1.33-0.41-2.19c1.38-2.01,0.89-4.41,1.77-7.12
	c-2.33,1.95-4.61,3.15-4.5,6.13c0.02,0.47-0.37,0.95-0.92,0.93c-0.68-0.02-0.53-0.59-0.6-1.06c-0.19-1.34-0.27-2.66,0.28-3.86
	c-0.99-1.06-2.36,1.42-2.65-0.3c-0.24-1.48-1.73-3.3-0.41-4.53c2.9-2.73,2.14-6.95,4.45-9.84c0.27-0.34,0.37-0.89-0.13-1.38
	c-2.3,0.56-3.06,3.02-5.33,4.34c-0.39-2.89-1.6-5.44-0.65-8.37c0.56-1.73,0.03-2.81-1.35-4.1c-0.19-0.17-0.05-0.69-0.07-1.05
	c-0.14-3.25-0.27-6.51-0.42-9.76c-0.03-0.66-0.07-1.37-1.17-1.79c0,3.84,0,7.57,0,11.14c-1.29,0.76-1.36-0.86-2.29-0.57
	c-0.05,0.2-0.26,0.53-0.17,0.69c1.4,2.52,1.19,5.09,0.31,7.69c-0.48,1.41,0.94,2.72,0.19,4.18c-0.34,0.67,0.47,1.94-0.87,2.07
	c-1.02,0.1-1.37-0.87-1.8-1.63c-0.36-0.62-0.42-1.53-1.91-1.68c0.48,4.41,3.21,8.17,3.09,13.38c-1.47-4.08-3.09-7.2-6.81-9.08
	c0.02,4.05,4.71,7.94,0.37,11.85c-1.12-1.41,0.07-3.54-0.57-5.39c-1.42,0.06-1.65,1.73-2.89,2.17c-0.25-1.55,0.86-3.02,0.15-4.55
	c-1.46-0.12-1.68,1.32-2.56,2.2c-1.2-1.68-1.19-3.47-1.27-5.26c-0.05-1.04-0.12-2.2-1.43-2.55c-1.54-0.41-1.55,0.97-2.13,1.78
	c-1.3,1.8-1.53,3.72-1.66,5.92c-0.16,2.51-1.74,4.89-0.5,7.58c0.28,0.62-0.46,0.83-1.15,0.55c-0.79-0.33-1.65-0.49-2.44-0.82
	c-2.03-0.85-3.01-1.18-2.16,1.87c0.38,1.37,0.31,4.14-2.44,4.67c0.18,1.33,2.57,2.62-0.06,4.05c-0.35,0.19,0.27,2.12,0.39,3.25
	c0.11,0.97,0.25,2.05-0.95,2.43c-0.89,0.28-1.91,0.72-2.77,0.07c-0.89-0.66-0.3-1.59-0.13-2.4c0.91-4.33-0.06-8.24-2.56-11.82
	c-0.47-0.68,0.08-1.29,0.08-1.93c0.01-1.11-0.36-2.05-0.91-2.99c-0.81-1.38-1.52-3.89-2.83-3.56c-1.77,0.44-1.27,3.07-1.6,4.76
	c-0.14,0.7,0.34,1.76-0.63,1.86c-1.29,0.13-0.56-1.07-0.7-1.67c-0.27-1.22-1.31-1.03-2.09-1.07c-1.24-0.06-2.49,0.15-3.74,0.14
	c-0.71,0-1.63-0.4-1.08-1.19c2.17-3.14-0.55-6.3,0.2-9.4c0.78-3.24-2.55-4.98-2.78-7.94c-0.2-2.52,0.31-4.87,0.67-7.29
	c0.05-0.36,0.44-0.83,0.32-1.02c-2.09-3.11-0.5-6.43-0.61-9.65c-5.92,1.83-6.83,3.17-5.89,9.04c0.17,1.06-0.39,1.54-0.88,2.25
	c-0.98,1.44-2.61,2.73-1.38,4.85c0.37,0.63-0.15,1.01-0.69,1.36c-0.37,0.24-0.63,0.67-0.93,1.01c2.41,1.77,0.51,3.26-0.21,4.91
	c-0.26,0.6,0.43,1.24,1.14,1.44c0.92,0.26,2.01,0.3,1.85,1.7c-0.13,1.18-1.07,2.33-1.87,2.33c-2.74,0-2.42,2-2.56,3.55
	c-0.11,1.27,0.33,2.21-1.77,2.31c-1.12,0.05-2.03,2.05-3.95,1.71c-0.82-0.14-0.67,0.98-0.27,1.56c0.49,0.71,1.11,1.33,1.62,2.03
	c1.98,2.71,1.08,6.32-1.83,8.02c-1.26,0.74-1.79,0.47-1.88-0.85c-0.14-2.01-0.67-3.93-1.19-5.86c-0.21-0.78-0.11-1.47-1.3-1.39
	c-1.13,0.08-1.09,0.72-1.2,1.53c-0.31,2.25-1.74,4.28-1.25,6.72c0.09,0.44-0.33,1.13-0.72,1.49c-2.81,2.61-5.68,5.16-9.31,6.64
	c-1.09,0.44-1.81-0.46-1.49-1.01c1.52-2.62,0.68-4.25-1.7-5.68c-0.44-0.27-0.23-1.48-0.53-2.17c-0.64-1.49-2.12-2.77-0.44-4.58
	c0.41-0.44-0.03-1.89-0.91-1.72c-2.62,0.51-1.73-1.68-1.57-2.33c0.57-2.31-2.65-2.49-2.27-4.52c-1.28,0.4-2.93,0.63-3.07,2.2
	c-0.14,1.51-0.9,2.32-2.01,2.9c-1.71,0.91-2.08,2.13-1.2,3.77c1.28,2.39,0.46,4.05-1.79,5.17c-0.52,0.26-1.31,0.4-1.25,1.01
	c0.27,2.77-1.73,4.5-2.81,6.66c-0.94,1.88,1.38,2.53,1.74,4.22c-1.2,0.45-2.35,1.17-3.47,1.85c-2.39,1.45-3.44,2.75-1.84,5.49
	c1.53,2.62-2.1,1.94-2.51,3.52c1.49-7.05-2.6-12.81-3.83-19.9c-1.99,3.91-2.41,7.42-3.06,10.87c-0.09,0.46-0.05,0.94-0.07,1.41
	c-2.85-1.13-2.33,2.11-3.73,2.86c-0.54,0.29-1.16,1.09-1.77,0.42c-0.66-0.73-0.39-1.83,0.21-2.37c1.85-1.65,2.33-3.88,3.01-6.31
	c-1.6-0.13-4.23,0.48-2.5-2.64c0.1-0.18-0.07-0.77-0.15-0.77c-4.44-0.46-3.83-6.1-7.51-7.32c-0.46-0.15-0.31-0.65-0.25-1.01
	c0.46-2.76-0.78-4.99-2.23-7.17c-2.89,1.47-3.65,4.06-3.7,7.03c-4.16,1.39-0.4,4.74-1.91,6.98c-1.01-2.39-3.61-0.65-5.05-2.14
	c-0.7,0.79-0.39,1.43-0.14,2.03c1.63,3.92,1.25,4.52-3.09,4.77c-0.65,0.04-1.3,0.01-2.3,0.01c0.64-0.45,1.31-0.71,1.31-0.96
	c-0.01-3.04,2.42-4.74,3.71-7.07c0.83-1.5,0.16-2.45-1.56-2.81c-3.73-0.78-3.96-1.25-2.48-4.75c0.42-0.99-0.11-1.88-0.09-2.83
	c0.08-2.99-0.27-6.05,2.43-8.45c-1.98,0.67-4.28-0.44-5.44,1.88c-0.3,0.6-1.11,0.86-1.76,0.35c-0.63-0.49-0.53-1.32-0.26-1.87
	c0.76-1.54,2.13-2.85-0.01-4.56c-0.64-0.51,0.56-1.88,0.9-2.87c0.21-0.62,0.96-1.39-0.39-1.75c-2.85-0.75-2.99-1.22-1.19-3.52
	c0.34-0.44,0.92-0.74,0.84-1.49c-0.09-0.08-0.29-0.33-0.36-0.3c-2.49,1.2-2.85,0.15-2.84-2.22c0.01-2.16,0.54-4.57-1.19-6.83
	c-1.44,2.5-0.76,5.09-1.34,7.43c-0.3,1.21,0.28,3.25-2.27,2.61c-0.61-0.15-0.92,0.4-0.64,0.92c1.63,3.1-0.23,6.2,0.3,9.16
	c-0.91,0.51-1.32-0.11-1.86-0.22c-1.56-0.33-2.82,0-1.86,1.8c1.32,2.46-0.6,5.25,1.15,7.67c0.54,0.75-0.65,1.72-1.26,2.42
	c-1.08,1.24-1.16,2.15,0.14,3.41c2.32,2.25,1.68,3.89-1.19,4.95c-1.93,0.71-3.94,0.73-5.84,1.34c-1.27,0.41-1.66,0.91-0.45,1.92
	c1.15,0.97,1.98,2.21,3.68,2.58c1.32,0.28,2.91,1.08,2.35,2.99c-0.48,1.64-1.23,2.7-3.5,2.45c-3.8-0.42-0.58,2.09-1.12,3.41
	c-2.36-0.98-2.89-3.11-2.83-5.07c0.09-2.7-0.94-4.91-2.35-6.92c-1.05-1.5-1.05-2.55,0.14-3.75c0.92-0.93,1.74-1.83-0.33-2.35
	c-0.88-0.22-1.26-0.81-1.2-1.71c0.06-0.91-0.47-1.63-1.22-1.75c-3.49-0.54-3.8-2.94-3.66-5.75c0.14-2.64-1.38-4.93-1.72-7.49
	c-0.13-0.99-1.19-0.92-1.88-1c-1.12-0.13-0.63,0.83-0.82,1.4c-0.98,2.86-1.1,5.85-1.51,8.8c-0.01,0.1,0,0.24-0.05,0.28
	c-2.06,1.34-2.58,2.86-0.77,4.86c0.31,0.35-0.32,0.85-0.82,0.92c-1.24,0.18-1.46,1.04-1.54,2.08c-0.03,0.47-0.18,1.3-0.35,1.32
	c-3.93,0.49-1.57,2.69-1.06,4.5c-1.41-0.38-2.89-1.08-3.79,0.19c-0.75,1.06,0.26,2.2,0.75,3.19c0.49,0.99,1.17,1.76-0.54,2.29
	c-1.51,0.47-0.56,1.25-0.02,1.9c1.2,1.43,3.03,1.57,4.59,2.27c0.73,0.33,1.94,0.45,1.73,1.59c-0.19,1.07-0.99,1.93-2.17,2.02
	c-1.91,0.15-3.83,0.19-5.75,0.24c-1.21,0.03-2.56-0.86-2.4-1.64c0.6-3.03-1.87-5.34-1.57-8.27c0.17-1.7-1.3-2.88-2.68-2.82
	c-1.39,0.06-1.16,1.76-1,2.84c0.74,5.16-1.57,9.89-1.97,14.88c-0.06,0.7-0.27,1.34-1.06,1.55c-2.73,0.71-1.96,1.94-0.59,3.41
	c0.59,0.63,1.99,1.26,1.19,2.27c-0.85,1.08-2.15,2.16-3.67,1.95c-1.44-0.2-0.85-1.69-1.11-2.63c-0.47-1.66-0.97-3.32-1.53-4.95
	c-0.35-1.04-1.21-1.6-1.78-0.38c-1.19,2.51-4.04,1.98-5.76,3.45c-0.19,0.16-0.84,0.09-1.03-0.11c-0.42-0.43-0.06-0.93,0.27-1.24
	c0.62-0.59,1.34-1.07,1.99-1.64c1.3-1.13,2.61-2.3-0.31-2.99c-1.15-0.27-0.98-1.12-0.75-1.82c1.09-3.17-1.1-5.82-1.48-8.76
	c-0.18-1.42-2.13,0.39-3.46-0.1c0.41-2.69-0.36-5.31-1.18-7.89c-0.25-0.77-0.64-1.75-1.72-1.69c-1.19,0.06-1.12,1.12-1.28,1.94
	c-0.22,1.12-0.03,2.09-1.94,2.34c-1.62,0.21-3.15,1.87-2.2,4.23c0.31,0.77,0.28,1.69,0.29,2.55c0.01,0.45-0.28,1.31-0.31,1.31
	c-2.06-0.38-2.44,1.46-3.5,2.47c-1.23,1.17-2.36,2.32-2.43,4.05c-0.04,1.06-0.49,1.79-1.07,2.58c-0.44,0.59-0.83,1.09-1.63,0.8
	c-0.86-0.31-0.91-1.1-0.56-1.67c1.28-2.09-1.89-2.43-1.53-4.11c-2.7,0.22-1.2-1.6-1-2.41c0.31-1.28,1.05-2.45,1.76-3.98
	c-2.89,0.54-3.27-1.25-3.08-3.57c-1.16,0.9-1.03,1.94-1.19,2.84c-0.31,1.7-1.14,3.1-2.45,4.13c-0.89,0.7-1.93,2.36-3.11,1.11
	c-1.21-1.28,0.46-2.13,1.31-2.94c0.73-0.7,1.33-1.48,1.08-2.53c-0.89-3.61,0.03-6.76,2.15-9.72c0.48-0.66,1.42-1.77,0.41-2.54
	c-0.79-0.6-1.47,0.6-2.22,0.94c-1.56,0.71-3.15,1.33-5,2.1c0.03-3.61,1.01-6.7,2.51-9.68c0.41-0.81,1.23-1.98,0.54-2.66
	c-0.91-0.88-1.59,0.47-2.33,0.93c-0.66,0.41-1.4,0.95-2.1,0.38c-0.6-0.48-0.59-1.32-0.6-2.13c-0.03-3.56,1.35-7.04,0.66-10.65
	c-1.44-0.04-1.5,1.8-2.87,1.88c-0.05-0.28-0.16-0.54-0.14-0.79c0.05-1.09,1.23-2.53,0.04-3.18c-1.35-0.74-1.34,1.52-2.5,1.94
	c-0.72-1.91-1.31-3.77-1.18-5.85c0.06-1,0-2.07-1.52-2.34c-1.57-0.28-1.3,0.93-1.76,1.64c-1.38,2.16-1.29,4.84-2.13,6.94
	c-1.21,3-0.57,5.46,0.15,8.76c-1.78-1.38-3.34-1.92-4.94-2.36c-1.01-0.28-1.9-0.17-1.53,1.16c0.63,2.29,0.38,4.16-1.73,5.62
	c-0.61,0.42,0.13,1.03,0.28,1.54c0.27,0.9,1.13,1.58-0.53,2.48c-1.39,0.76,0.14,2.54,0.25,3.87c0.13,1.55,2.12,4.2-1.92,2.5
	c-0.66-0.28-1.34,0.04-1.81,0.59c-0.55,0.64-0.15,1.28,0.14,1.87c0.39,0.79,0.94,1.5,1.77,1.83c2.82,1.13,4.37,3.65,6.7,5.84
	c-2.9-0.28-5.45,0-7.49-2.39c-0.62-0.73-2.76-0.48-4.1-0.19c-1.12,0.25-0.47,1.29,0,1.84c1.31,1.52,2.67,2.99,4.07,4.43
	c0.42,0.44,0.93,0.86,0.67,1.45c-0.29,0.65-1.07,0.46-1.55,0.32c-2.32-0.68-5.26,0.1-6.49-3.15c-0.61-1.62-1.48-0.62-1.88,0.38
	c-0.75,1.84-1.02,3.84-1.64,5.73c-0.33,1-0.77,1.91-1.19,2.84c-0.84,1.83-2.77,3.17-2.4,5.58c0.06,0.42-0.47,1.05-1.29,0.88
	c-0.47-3.48,2.34-6.63,1.18-10.34c-1.01,0.35-1.88,0.74-2.78,0.95c-0.67,0.15-1.55,0.83-2.05-0.14c-0.38-0.73,0.06-1.48,0.51-2.14
	c0.54-0.79,1.2-1.53,1.58-2.39c1.31-3.01,1.08-3.39-2.24-4.09c0.51-1.54,2.46-3.97-1.55-3.3c-0.41,0.07-0.78-0.23-0.75-0.67
	c0.17-3.15-2.35-4.53-4.21-6.3c-0.56-0.53-0.43-0.98-0.45-1.5c-0.06-1.54-0.15-3.02-1.04-4.43c-0.43-0.68-0.54-1.87-1.4-1.82
	c-0.71,0.04-1.61,0.79-1.99,1.47c-0.66,1.2-1.86,2.31-1.3,3.96c0.09,0.26,0.09,0.78-0.02,0.82c-3.67,1.52-1.48,4.43-1.64,6.78
	c-0.02,0.25-0.23,0.49-0.55,1.16c-0.83-3.11-3.61-1.46-5.16-2.86c-0.72,1.29,0,2.1,0.48,3.02c1.19,2.26,1.59,4.47-1.24,5.83
	c-1.18,0.56-0.95,1.43-1.05,2.37c-0.09,0.82-0.75,1.39-1.61,1.38c-1.21,0-0.53-0.91-0.64-1.47c-0.43-2.06-0.73-4.16-1.77-6.03
	c-0.28-0.5-0.65-1.04-1.31-0.97c-0.69,0.07-0.82,0.69-0.99,1.25c-0.19,0.63-0.29,1.69-0.67,1.81c-3.5,1.12-3.48,3.66-2.97,6.57
	c0.16,0.91-0.08,2.39-1.41,1.67c-0.91-0.49-2.75,0.69-2.87-2.01c-0.17-3.87-0.81-7.96-4.12-10.82c-0.99,1.15-2.06,2.18-2.03,3.94
	c0.02,1.34-1.17,2.32-2.29,2.01c-1.36-0.38-0.32-1.56-0.11-2.42c0.28-1.11,0.39-2.28,1.12-3.24c0.29-0.37,0.56-1.16,0.03-1.19
	c-3.09-0.13-1.65-1.31-0.7-2.52c0.79-1.02,0.14-1.37-0.84-1.36c-0.66,0.01-1.32,0.12-2.06,0.2c-0.25-0.9,1.56-2-0.35-2.8
	c-1.31-0.54-0.14-1.19,0.26-1.73c0.34-0.47,0.8-0.95,0.46-1.55c-0.44-0.78-1.16-0.41-1.8-0.28c-2.3,0.48-4.71,0.6-6.57,2.53
	c-0.38-1.23,0.06-2,0.37-2.79c0.61-1.6,2.57-3.37-0.66-4.46c-0.25-0.08-0.48-0.92-0.37-1.3c0.75-2.65-0.9-4.46-1.94-6.59
	c-0.78-1.61-2.02-1.7-3.22-1.69c-1.58,0.01-1.12,1.63-1.13,2.46c-0.01,2.11-0.88,3.89-1.52,5.78c-1.49,0.19-1.31-2.59-2.89-1.7
	c-1.79,1.01,0.37,2.61-0.3,4.05c-1.78-0.36-2.4-2.45-4.35-2.85c-0.49,2.1,0.14,4.22,0.74,5.98c0.52,1.53,0.21,2.97,0.51,4.43
	c0.37,1.8-1.54,2.74-3.38,1.8c-1.18-0.6-2.23-1.46-3.86-1.1c0.59,2.23,1.94,3.94,3.13,5.76c1.16,1.77,0.57,4.16,1.86,6.1
	c-3.01-1.06-6.17-1.04-8.92-2.92c-4.16-2.84-4.79-1.8-5.46,3.03c-0.45,3.28-2.82,4.29-4.29,6.34c-0.43,0.59-1.41,0.67-1.82,0.13
	c-1.14-1.52-4.56-2.13-2.22-5.18c0.25-0.32,0.36-1.06,0.17-1.37c-1.79-2.87-1.31-6.66-3.96-9.21c-1.37-1.32-1.27-3.16-0.66-4.89
	c0.49-1.4,0.44-2.57-0.78-3.64c-1.79-1.57-1.28-4.66-3.94-5.88c-0.8,1.72-2.48,3.05-1.82,5.37c0.15,0.55-0.61,1.14-1.22,1.48
	c-0.87,0.47-1.37,1.24-1.04,2.15c1.26,3.53-0.29,6.31-2.18,9.05c-0.31,0.45-0.43,1.05-0.53,1.59c-0.39,2.17-0.38,2.17-3.92,2.23
	c4.71-1.22,1.2-5.66,4.48-6.88c-0.95-1.25-1.86-0.51-2.64-0.67c-0.97-0.19-2.26,0.96-2.82-0.89c-0.46-1.51-1.35-2.87,0.64-4.01
	c2.63-1.52,2.58-4.44,3.31-6.93c0.27-0.91-0.48-1.02-1.17-1.24c-4.94-1.63-6.08-5.42-2.63-9.41c1.15-1.33,1.28-2.61,1.35-4.49
	c-1.78,1.16-3.06,2.14-5.31,1.45c-2.17-0.67-1.82,1.99-2.16,3.78c-1.37-1.3-3.32-1.8-1.46-4.02c0.98-1.17,0.46-2.77,0.08-4.18
	c-0.07-0.28-0.03-0.59-0.13-0.85c-0.43-1.09,1.78-2.7-0.08-3.13c-1.4-0.32-3.03,0.91-3.92,2.6c0.22-0.84,0.21-1.85,0.69-2.5
	c2.07-2.85,0.19-5.27-0.69-7.79c-0.11-0.31-0.54-0.7-0.83-0.71c-1.52-0.02-2.77-0.35-2.56-3.07c-1.59,2.73-2.67,4.52-0.93,6.74
	c-1.25,0.2-1.32-1.44-2.52-0.93c0.19,1.42,0.3,2.86-0.04,4.37c-0.31,1.37,0.53,2.78,1.29,4.37c-1.38,0.03-3.32-2.42-3.38-0.09
	c-0.05,1.93-2.13,1.23-2.06,2.8c0.08,1.92-1.21,2.53-3.19,1.75c0.21,1.16,0.39,1.99,0.5,2.83c0.1,0.76,0.12,1.53,0.2,2.51
	c-1.27-0.18-2.43-0.34-3.58-0.52c-0.61-0.09-1.24-0.89-1.81-0.12c-0.42,0.57,0.09,1.33,0.01,1.94c-0.2,1.56,3.46,2.07,1.25,3.64
	c-0.75,0.53-3.04,0.95-4.67-0.06c1.49,3.13,0.79,7.11,4.68,9.04c1.07,0.53,1.02,2.91,0.62,4.1c-0.4,1.2-1.81-0.13-2.78-0.18
	c-1.98-0.1-3.63-0.86-5.52-2.79c0.98,5.13-3.82,6.99-4.25,10.99c-0.75-1.63-0.85-3.17-0.5-5.1c-1.94,0.97-3.18,2.03-2.84-1.47
	c0.19-1.99,0.86-3.28,1.65-4.82c1.29-2.48,1.14-5.44,3.6-8.14c-3.39,0.36-3.81,2.9-6.18,4.16c0.14-8.17-2.11-15.67-2.58-23.46
	c-0.29,0.01-0.59,0.02-0.88,0.03c0,2.78,0.06,5.56-0.04,8.33c-0.02,0.7,0.86,2.53-1.44,1.59c-0.85-0.35-0.52,0.74-0.35,1.17
	c1.31,3.42-0.29,6.87,0.11,10.3c0.08,0.72,0.25,2.01-0.9,2.13c-0.87,0.09-0.94-1.07-1.29-1.72c-0.39-0.73-0.51-1.71-1.75-1.76
	c-0.69,1.71-0.03,3.1,0.9,4.5c0.41,0.61,0.95,1.46,0.2,2.09c-0.67,0.57-1.13-0.37-1.7-0.58c-1.11-0.42-1.92-2.46-2.91-1.61
	c-1.13,0.97,0.16,2.54,0.84,3.6c1.6,2.53,1.1,4.82-0.45,7.08c-1.04-0.53-0.6-3.06-2.01-2.47c-1.42,0.59,0.03,2.41-0.11,3.63
	c-0.43,3.79,2,6.87,2.32,10.46c0.14,1.6,2.21,2.11,2.58,3.71c0.13,0.55,0.76,1.32,0.58,1.56c-1.52,2.01-0.09,3.94,0.54,6.46
	c-6.1-2.86-5.96-9.83-10.88-13.04c0.08,1.84,1.55,3.92-1.05,4.97c-0.13,0.05-0.02,1.14,0.23,1.6c1.46,2.68,0.33,5.26-0.2,7.86
	c-0.2,0.96-0.67,1.7-1.79,1.02c-0.81-0.49-1.32-1.18-0.59-2.14c0.46-0.61,0.99-1.18,1.4-1.83c0.39-0.62,1.2-1.24,0.65-2.04
	c-0.53-0.77-1.21-0.11-1.8,0.13c-1.21,0.5-1.64,0.19-1.33-1.13c0.24-1.02,0.4-2.05,0.55-3.09c0.54-3.82-0.79-7.19-2.72-10.34
	c-1.37-2.23-3.58-1.15-5.45-0.91c-1.21,0.16-2.36,0.74-3.83,1.22c0.42-1.47,0.31-2.64,2.45-2.34c1.63,0.23,3.65-3.47,2.66-4.84
	c-1.12-1.55-1.93-3.42-3.63-4.53c-3.64-2.39-3.91-3.69-1.54-7.3c0.56-0.86,1.61-1.8,0.69-2.8c-1.14-1.24-2.07-0.02-2.91,0.7
	c-0.96,0.83-1.75,0.8-2.28-0.38c-0.41-0.91-1.45-0.85-2.16-1.63c1.64-0.18,2.82-0.87,3.4-2.34c0.76-1.91-0.76-2.47-1.9-3.33
	c-1.09-0.83-0.95-2.27-1.25-3.44c-0.38-1.43,0.02-2.99-1.59-4.07c-1.14-0.76,0.24-1.41,0.56-2.11c0.53-1.16,0.88-2.4,0.28-3.61
	c-0.63-1.29-1.67-0.26-2.57-0.25c0.34-1.89-0.08-3.75-0.05-5.62c0.02-1.51-2.25-2.37-2.38-4.24c-0.02-0.27-0.85-0.14-0.9,0.24
	c-0.23,1.73-2.7,2.21-2.28,4.39c0.18,0.95-0.89,1.65-1.67,2.21c-2.13,1.53-2.42,3.45-1.44,5.77c1.42,3.36,0.61,5.71-2.67,7.75
	c-0.5,0.31-0.69,0.7-0.61,1.17c0.58,3.57-1.5,6.34-2.79,9.35c-0.46,1.08-0.27,2.03,0.12,3.06c0.34,0.91,1.96,1.82,0.2,2.85
	c-1.02,0.6-2.07,2.65-3.27,0.12c-0.07-0.16-0.72-0.14-1.06-0.06c-0.88,0.22-1.93,1.12-2.53-0.12c-0.55-1.14,1-1.14,1.44-1.8
	c0.47-0.72,1.11-1.33,1.57-2.05c0.36-0.55,0.74-1.23,0.17-1.85c-0.48-0.53-1.07-0.21-1.6,0.02c-1.93,0.84-4.21,0.14-6.14,1.68
	c-0.45-1.78,0.06-3.14,0.41-4.49c0.13-0.51,0.86-0.95,0.38-1.53c-0.47-0.57-1.1-0.2-1.56,0.1c-1.78,1.14-2.24,0.55-2.38-1.4
	c-0.06-0.8-0.18-2.93-2.31-1.7c-0.73,0.42-1.07-0.1-0.99-0.81c0.07-0.66,1.16-1.36,0.02-1.95c-0.93-0.48-1.85-0.28-2.66,0.46
	c-0.4,0.36-0.77,0.92-1.53,0.6c-0.49-1.28,0.91-2,1.01-3.11c0.08-0.9,1.16-2.1-0.85-2.34c-0.97-0.12-0.43-0.81-0.19-1.3
	c0.37-0.74,1.3-1.21,1.07-2.24c-0.19-0.05-0.37-0.16-0.52-0.14c-1.03,0.18-1.48,2.18-2.5,1.38c-1.07-0.85,0.36-1.81,0.84-2.67
	c0.2-0.37,0.3-0.9-0.12-1c-1.65-0.4-1.16-2.04-2.01-3.32c-0.77,2.27-2.01,3.31-4.39,2.58c-1.41-0.43-1.06,0.91-1.07,1.71
	c-0.01,1.18,0.14,2.34-1.68,2.34c-1.17,0-0.61,0.8-0.42,1.45c0.62,2.15,2.4,3.89,2.32,7.21c-1.14-2.85-3.26-3.01-4.98-3.85
	c-0.43-0.21-0.92-0.43-1.35-0.1c-0.48,0.38-0.25,0.89-0.03,1.31c0.91,1.73,1.03,3.36,0.37,5.34c-0.47,1.41,0.46,2.97,2.33,3.58
	c-0.85,0.68-1.83,0.42-2.42,1.19c-0.5,0.65-1.22,1.47-2.19,0.96c-1.11-0.57,0.18-1.38,0-1.95c-0.42-1.34-1.59-2.75-2.85-1.91
	c-2.61,1.73-4.3,0.46-6.14-1.06c-0.28-0.23-0.65-0.34-1.69-0.86c1.52,4.48,3.98,7.57,5.96,11.18c-1.52,2.47-4.56,3.64-7.95,4.21
	c-0.76,0.13-0.78,0.46-0.66,1.39c0.58,4.3,3.42,6.47,6.97,8.12c0.14,0.07,0.2,0.3,0.35,0.54c-0.25,0.94-2.69,0.81-1.44,2.68
	c0.16,0.23-0.93,0.47-1.49,0.47c-1.34,0.01-2.68-0.03-4.01-0.08c-0.69-0.03-1.73-0.26-1.72-0.79c0.05-2.35-2.23-4.15-1.87-6.23
	c0.55-3.22-0.98-2.11-2.46-1.63c-0.72,0.23-1.43,0.49-2.46,0.85c1.31-4.53-0.5-8.34-1.9-12.22c-0.25-0.69-0.32-1.56-1.47-1.34
	c-1.09,0.21-1.43,0.95-1.4,1.88c0.04,1.18-0.17,2.3-0.57,3.39c-0.15,0.42-0.35,1.15-0.91,0.84c-3.05-1.66-1.4,1.16-1.9,2.01
	c-0.93-0.16-1.27-1.46-2.62-1.31c0.25,2.59,0.54,5.12,0.72,7.66c0.16,2.13-0.18,3.73-2.85,2.04c-0.27-0.17-0.84-0.26-1.03-0.1
	c-0.53,0.46-0.25,1.11,0,1.59c1.42,2.66,2.01,5.54,2.49,8.81c-2.23-1.06-4.31-2.04-6.46-3.05c-0.4,1.45,0.25,2.41,0.79,3.21
	c1.51,2.27,2.34,4.58,1.58,7.33c-0.36,1.3,0.36,2.19,1.4,2.9c0.55,0.38,1.22,0.89,0.59,1.61c-0.59,0.67-1.27,0.18-1.77-0.27
	c-1.72-1.55-3.59-2.82-6.15-3.5c-0.04,2.03,1.14,3.37,2.02,4.69c1.06,1.59,0.99,2.81,0.07,4.45c-0.62,1.09-2.45,2.01-1.62,3.43
	c1.13,1.94,1.9,4.25,4.13,5.39c0.33,0.17,0.66,0.35,1.02,0.54c-0.84,2.19-2.53,1.7-4.13,1.59c-0.83-0.06-1.88-0.27-2.35,0.64
	c-0.53,1.03,0.38,1.64,1.08,2.06c1.77,1.09,0.61,2.27-0.01,3.12c-0.87,1.18-1.01,2.16-0.32,3.42c0.53,0.96,1.81,1.89,1,3.07
	c-0.82,1.2-2.15,0.23-3.28,0.3c0-4.22,0-8.45,0-12.67c-1.11-0.49-2.23-0.98-3.6-1.58c1.74-1.57,3.67-2.84-0.07-3.91
	c-2.05-0.59-0.33-2.68,0.06-3.29c1.31-2.1,0.86-2.88-1.38-3.35c-1.44-0.3-2.2-1.16-1.41-2.74c0.58-1.15-0.09-2.64,0.13-3.41
	c1.02-3.57-1.72-6.72-0.73-10.16c0.2-0.69,0.78-1.4-0.1-2.32c-1.42,2.03-2.37,1.76-3.23-0.53c-0.65-1.73-1.56-1.01-2.02,0.27
	c-0.44,1.26-0.93,2.55-1.06,3.87c-0.45,4.41-4.48,6.96-5.38,11.11c-0.24-0.02-0.48-0.04-0.72-0.07c0-2.68-0.07-5.36,0.02-8.04
	c0.09-2.74,2.56-3.88,4.06-5.66c0.36-0.43,1.17-0.78,1-1.3c-1.1-3.57,2.11-6.27,1.83-9.96c-2.12,1.25-3.21,3.22-4.71,5.42
	c-0.15-3.39-1.59-1.45-2.66-0.97c-0.6-1.17,0.77-2.42-0.29-3.34c-1.02-0.9-1.87,0.8-3.1,0.25c1.28-2.47,0.26-5.23,1.01-7.81
	c0.18-0.63-0.13-1.09-0.7-1.42c-0.95-0.56-1.01-1.33-0.41-2.19c1.38-2.01,0.89-4.41,1.77-7.12c-2.33,1.95-4.61,3.15-4.5,6.13
	c0.02,0.47-0.37,0.95-0.92,0.93c-0.68-0.02-0.53-0.59-0.6-1.06c-0.19-1.34-0.27-2.66,0.28-3.86c-0.99-1.06-2.36,1.42-2.65-0.3
	c-0.24-1.48-1.73-3.3-0.41-4.53c2.9-2.73,2.14-6.95,4.45-9.84c0.27-0.34,0.37-0.89-0.13-1.38c-2.3,0.56-3.06,3.02-5.33,4.34
	c-0.39-2.89-1.6-5.44-0.65-8.37c0.56-1.73,0.03-2.81-1.35-4.1c-0.19-0.17-0.05-0.69-0.07-1.05c-0.14-3.25-0.26-6.51-0.42-9.76
	c-0.03-0.66-0.07-1.37-1.17-1.79c0,3.84,0,7.57,0,11.14c-1.29,0.76-1.36-0.86-2.29-0.57c-0.05,0.2-0.26,0.53-0.17,0.69
	c1.4,2.52,1.19,5.09,0.31,7.69c-0.48,1.41,0.94,2.72,0.18,4.18c-0.34,0.67,0.47,1.94-0.87,2.07c-1.02,0.1-1.37-0.87-1.8-1.63
	c-0.36-0.62-0.42-1.53-1.91-1.68c0.48,4.41,3.21,8.17,3.09,13.38c-1.47-4.08-3.09-7.2-6.81-9.08c0.02,4.05,4.71,7.94,0.37,11.85
	c-1.12-1.41,0.07-3.54-0.57-5.39c-1.42,0.06-1.65,1.73-2.89,2.17c-0.25-1.55,0.86-3.02,0.15-4.55c-1.46-0.12-1.68,1.32-2.56,2.2
	c-1.2-1.68-1.19-3.47-1.27-5.26c-0.05-1.04-0.12-2.2-1.43-2.55c-1.54-0.41-1.55,0.97-2.13,1.78c-1.3,1.8-1.53,3.72-1.66,5.92
	c-0.16,2.51-1.74,4.89-0.5,7.58c0.28,0.62-0.46,0.83-1.15,0.55c-0.79-0.33-1.65-0.49-2.44-0.82c-2.03-0.85-3.01-1.18-2.16,1.87
	c0.38,1.37,0.31,4.14-2.44,4.67c0.18,1.33,2.57,2.62-0.06,4.05c-0.35,0.19,0.27,2.12,0.39,3.25c0.11,0.97,0.25,2.05-0.95,2.43
	c-0.89,0.28-1.91,0.72-2.77,0.07c-0.89-0.66-0.3-1.59-0.13-2.4c0.91-4.33-0.06-8.24-2.56-11.82c-0.47-0.68,0.08-1.29,0.08-1.93
	c0.01-1.11-0.36-2.05-0.91-2.99c-0.81-1.38-1.52-3.89-2.83-3.56c-1.77,0.44-1.27,3.07-1.6,4.76c-0.14,0.7,0.34,1.76-0.63,1.86
	c-1.29,0.13-0.56-1.07-0.7-1.67c-0.27-1.22-1.31-1.03-2.09-1.07c-1.24-0.06-2.49,0.15-3.74,0.14c-0.71,0-1.63-0.4-1.08-1.19
	c2.17-3.14-0.55-6.3,0.2-9.4c0.78-3.24-2.55-4.98-2.78-7.94c-0.2-2.52,0.31-4.87,0.67-7.29c0.05-0.36,0.44-0.83,0.32-1.02
	c-2.09-3.11-0.5-6.43-0.61-9.65c-5.92,1.83-6.83,3.17-5.89,9.04c0.17,1.06-0.39,1.54-0.88,2.25c-0.98,1.44-2.61,2.73-1.38,4.85
	c0.37,0.63-0.15,1.01-0.69,1.36c-0.37,0.24-0.63,0.67-0.93,1.01c2.41,1.77,0.51,3.26-0.21,4.91c-0.26,0.6,0.43,1.24,1.14,1.44
	c0.92,0.26,2.01,0.3,1.85,1.7c-0.13,1.18-1.07,2.33-1.87,2.33c-2.74,0-2.42,2-2.56,3.55c-0.11,1.27,0.33,2.21-1.77,2.31
	c-1.12,0.05-2.03,2.05-3.95,1.71c-0.82-0.14-0.67,0.98-0.27,1.56c0.49,0.71,1.11,1.33,1.62,2.03c1.98,2.71,1.08,6.32-1.83,8.02
	c-1.26,0.74-1.79,0.47-1.88-0.85c-0.14-2.01-0.67-3.93-1.19-5.86c-0.21-0.78-0.11-1.47-1.3-1.39c-1.13,0.08-1.09,0.72-1.2,1.53
	c-0.31,2.25-1.74,4.28-1.25,6.72c0.09,0.44-0.33,1.13-0.72,1.49c-2.81,2.61-5.68,5.16-9.31,6.64c-1.09,0.44-1.81-0.46-1.49-1.01
	c1.52-2.62,0.68-4.25-1.7-5.68c-0.44-0.27-0.23-1.48-0.53-2.17c-0.64-1.49-2.12-2.77-0.44-4.58c0.41-0.44-0.03-1.89-0.91-1.72
	c-2.62,0.51-1.73-1.68-1.57-2.33c0.57-2.31-2.65-2.49-2.27-4.52c-1.28,0.4-2.93,0.63-3.07,2.2c-0.14,1.51-0.9,2.32-2.01,2.9
	c-1.71,0.91-2.08,2.13-1.2,3.77c1.28,2.39,0.46,4.05-1.79,5.17c-0.52,0.26-1.31,0.4-1.25,1.01c0.27,2.77-1.73,4.5-2.81,6.66
	c-0.94,1.88,1.38,2.53,1.74,4.22c-1.2,0.45-2.35,1.17-3.47,1.85c-2.39,1.45-3.44,2.75-1.84,5.49c1.53,2.62-2.1,1.94-2.51,3.52
	c1.49-7.05-2.6-12.81-3.83-19.9c-1.99,3.91-2.41,7.42-3.06,10.87c-0.09,0.46-0.05,0.94-0.07,1.41c-2.85-1.13-2.33,2.11-3.73,2.86
	c-0.54,0.29-1.16,1.09-1.77,0.42c-0.66-0.73-0.39-1.83,0.21-2.37c1.85-1.65,2.33-3.88,3.01-6.31c-1.6-0.13-4.23,0.48-2.5-2.64
	c0.1-0.18-0.07-0.77-0.15-0.77c-4.44-0.46-3.83-6.1-7.51-7.32c-0.46-0.15-0.31-0.65-0.25-1.01c0.46-2.76-0.78-4.99-2.23-7.17
	c-2.89,1.47-3.65,4.06-3.7,7.03c-4.16,1.39-0.4,4.74-1.91,6.98c-1.01-2.39-3.61-0.65-5.05-2.14c-0.7,0.79-0.39,1.43-0.14,2.03
	c1.63,3.92,1.25,4.52-3.09,4.77c-0.65,0.04-1.3,0.01-2.3,0.01c0.64-0.45,1.31-0.71,1.31-0.96c-0.01-3.04,2.42-4.74,3.71-7.07
	c0.83-1.5,0.16-2.45-1.56-2.81c-3.73-0.78-3.96-1.25-2.48-4.75c0.42-0.99-0.11-1.88-0.09-2.83c0.08-2.99-0.27-6.05,2.43-8.45
	c-1.98,0.67-4.28-0.44-5.44,1.88c-0.3,0.6-1.11,0.86-1.76,0.35c-0.63-0.49-0.53-1.32-0.26-1.87c0.76-1.54,2.13-2.85-0.01-4.56
	c-0.64-0.51,0.56-1.88,0.9-2.87c0.21-0.62,0.96-1.39-0.39-1.75c-2.85-0.75-3-1.22-1.19-3.52c0.34-0.44,0.92-0.74,0.84-1.49
	c-0.09-0.08-0.29-0.33-0.36-0.3c-2.49,1.2-2.85,0.15-2.84-2.22c0.01-2.16,0.54-4.57-1.19-6.83c-1.44,2.5-0.76,5.09-1.34,7.43
	c-0.3,1.21,0.28,3.25-2.27,2.61c-0.61-0.15-0.92,0.4-0.64,0.92c1.63,3.1-0.23,6.2,0.3,9.16c-0.91,0.51-1.32-0.11-1.86-0.22
	c-1.56-0.33-2.82,0-1.86,1.8c1.32,2.46-0.6,5.25,1.15,7.67c0.54,0.75-0.65,1.72-1.26,2.42c-1.08,1.24-1.16,2.15,0.14,3.41
	c2.32,2.25,1.68,3.89-1.19,4.95c-1.93,0.71-3.94,0.73-5.84,1.34c-1.27,0.41-1.66,0.91-0.45,1.92c1.15,0.97,1.98,2.21,3.68,2.58
	c1.32,0.28,2.91,1.08,2.35,2.99c-0.48,1.64-1.23,2.7-3.5,2.45c-3.8-0.42-0.58,2.09-1.12,3.41c-2.36-0.98-2.89-3.11-2.83-5.07
	c0.09-2.7-0.94-4.91-2.35-6.92c-1.05-1.5-1.05-2.55,0.14-3.75c0.92-0.93,1.74-1.83-0.33-2.35c-0.88-0.22-1.26-0.81-1.2-1.71
	c0.06-0.91-0.47-1.63-1.22-1.75c-3.49-0.54-3.8-2.94-3.66-5.75c0.14-2.64-1.38-4.93-1.72-7.49c-0.13-0.99-1.19-0.92-1.88-1
	c-1.12-0.13-0.63,0.83-0.82,1.4c-0.98,2.86-1.1,5.85-1.51,8.8c-0.01,0.1,0,0.24-0.05,0.28c-2.06,1.34-2.58,2.86-0.77,4.86
	c0.31,0.35-0.32,0.85-0.82,0.92c-1.24,0.18-1.46,1.04-1.54,2.08c-0.03,0.47-0.18,1.3-0.35,1.32c-3.93,0.49-1.57,2.69-1.06,4.5
	c-1.41-0.38-2.89-1.08-3.79,0.19c-0.75,1.06,0.26,2.2,0.75,3.19c0.49,0.99,1.17,1.76-0.54,2.29c-1.51,0.47-0.56,1.25-0.02,1.9
	c1.2,1.43,3.03,1.57,4.59,2.27c0.73,0.33,1.94,0.45,1.73,1.59c-0.19,1.07-0.99,1.93-2.17,2.02c-1.91,0.15-3.83,0.19-5.75,0.24
	c-1.21,0.03-2.56-0.86-2.4-1.64c0.6-3.03-1.87-5.34-1.57-8.27c0.17-1.7-1.3-2.88-2.68-2.82c-1.39,0.06-1.16,1.76-1,2.84
	c0.74,5.16-1.57,9.89-1.97,14.88c-0.06,0.7-0.27,1.34-1.06,1.55c-2.73,0.71-1.96,1.94-0.59,3.41c0.59,0.63,1.99,1.26,1.19,2.27
	c-0.85,1.08-2.15,2.16-3.67,1.95c-1.44-0.2-0.85-1.69-1.11-2.63c-0.47-1.66-0.97-3.32-1.53-4.95c-0.35-1.04-1.21-1.6-1.78-0.38
	c-1.19,2.51-4.04,1.98-5.76,3.45c-0.19,0.16-0.84,0.09-1.03-0.11c-0.42-0.43-0.06-0.93,0.27-1.24c0.62-0.59,1.34-1.07,1.99-1.64
	c1.3-1.13,2.61-2.3-0.31-2.99c-1.15-0.27-0.98-1.12-0.75-1.82c1.09-3.17-1.1-5.82-1.48-8.76c-0.18-1.42-2.13,0.39-3.46-0.1
	c0.41-2.69-0.36-5.31-1.18-7.89c-0.25-0.77-0.64-1.75-1.72-1.69c-1.19,0.06-1.12,1.12-1.28,1.94c-0.22,1.12-0.03,2.09-1.94,2.34
	c-1.62,0.21-3.15,1.87-2.2,4.23c0.31,0.77,0.28,1.69,0.29,2.55c0.01,0.45-0.28,1.31-0.31,1.31c-2.06-0.38-2.44,1.46-3.5,2.47
	c-1.23,1.17-2.36,2.32-2.43,4.05c-0.04,1.06-0.49,1.79-1.07,2.58c-0.44,0.59-0.83,1.09-1.63,0.8c-0.86-0.31-0.91-1.1-0.56-1.67
	c1.28-2.09-1.89-2.43-1.53-4.11c-2.7,0.22-1.2-1.6-1-2.41c0.31-1.28,1.05-2.45,1.76-3.98c-2.89,0.54-3.27-1.25-3.08-3.57
	c-1.16,0.9-1.03,1.94-1.19,2.84c-0.31,1.7-1.14,3.1-2.45,4.13c-0.89,0.7-1.93,2.36-3.11,1.11c-1.21-1.28,0.46-2.13,1.31-2.94
	c0.73-0.7,1.33-1.48,1.08-2.53c-0.89-3.61,0.03-6.76,2.15-9.72c0.48-0.66,1.42-1.77,0.41-2.54c-0.79-0.6-1.47,0.6-2.22,0.94
	c-1.56,0.71-3.15,1.33-5,2.1c0.03-3.61,1.01-6.7,2.51-9.68c0.41-0.81,1.23-1.98,0.54-2.66c-0.91-0.88-1.59,0.47-2.33,0.93
	c-0.66,0.41-1.4,0.95-2.1,0.38c-0.6-0.48-0.59-1.32-0.6-2.13c-0.03-3.56,1.35-7.04,0.66-10.65c-1.44-0.04-1.5,1.8-2.87,1.88
	c-0.05-0.28-0.16-0.54-0.14-0.79c0.05-1.09,1.23-2.53,0.04-3.18c-1.35-0.74-1.34,1.52-2.5,1.94c-0.72-1.91-1.31-3.77-1.18-5.85
	c0.06-1,0-2.07-1.52-2.34c-1.57-0.28-1.3,0.93-1.76,1.64c-1.38,2.16-1.29,4.84-2.13,6.94c-1.21,3-0.57,5.46,0.15,8.76
	c-1.78-1.38-3.34-1.92-4.94-2.36c-1.01-0.28-1.9-0.17-1.53,1.16c0.63,2.29,0.38,4.16-1.73,5.62c-0.61,0.42,0.13,1.03,0.28,1.54
	c0.27,0.9,1.13,1.58-0.53,2.48c-1.39,0.76,0.14,2.54,0.25,3.87c0.13,1.55,2.12,4.2-1.92,2.5c-0.66-0.28-1.34,0.04-1.81,0.59
	c-0.55,0.64-0.15,1.28,0.14,1.87c0.39,0.79,0.94,1.5,1.77,1.83c2.82,1.13,4.37,3.65,6.7,5.84c-2.9-0.28-5.45,0-7.49-2.39
	c-0.62-0.73-2.76-0.48-4.1-0.19c-1.12,0.25-0.47,1.29,0,1.84c1.31,1.52,2.67,2.99,4.07,4.43c0.42,0.44,0.93,0.86,0.67,1.45
	c-0.29,0.65-1.07,0.46-1.55,0.32c-2.32-0.68-5.26,0.1-6.49-3.15c-0.61-1.62-1.48-0.62-1.88,0.38c-0.75,1.84-1.02,3.84-1.64,5.73
	c-0.33,1-0.77,1.91-1.19,2.84c-0.84,1.83-2.77,3.17-2.4,5.58c0.06,0.42-0.47,1.05-1.29,0.88c-0.47-3.48,2.34-6.63,1.18-10.34
	c-1.01,0.35-1.88,0.74-2.78,0.95c-0.67,0.15-1.55,0.83-2.05-0.14c-0.38-0.73,0.06-1.48,0.51-2.14c0.54-0.79,1.2-1.53,1.58-2.39
	c1.31-3.01,1.08-3.39-2.24-4.09c0.51-1.54,2.46-3.97-1.55-3.3c-0.41,0.07-0.78-0.23-0.75-0.67c0.17-3.15-2.35-4.53-4.21-6.3
	c-0.56-0.53-0.43-0.98-0.45-1.5c-0.06-1.54-0.15-3.02-1.04-4.43c-0.43-0.68-0.54-1.87-1.4-1.82c-0.71,0.04-1.61,0.79-1.99,1.47
	c-0.66,1.2-1.86,2.31-1.3,3.96c0.09,0.26,0.09,0.78-0.02,0.82c-3.67,1.52-1.48,4.43-1.64,6.78c-0.02,0.25-0.23,0.49-0.55,1.16
	c-0.83-3.11-3.61-1.46-5.16-2.86c-0.72,1.29,0,2.1,0.48,3.02c1.19,2.26,1.59,4.47-1.24,5.83c-1.18,0.56-0.95,1.43-1.05,2.37
	c-0.09,0.82-0.75,1.39-1.61,1.38c-1.21,0-0.53-0.91-0.64-1.47c-0.43-2.06-0.73-4.16-1.77-6.03c-0.28-0.5-0.65-1.04-1.31-0.97
	c-0.69,0.07-0.82,0.69-0.99,1.25c-0.19,0.63-0.29,1.69-0.67,1.81c-3.5,1.12-3.48,3.66-2.97,6.57c0.16,0.91-0.08,2.39-1.41,1.67
	c-0.91-0.49-2.75,0.69-2.87-2.01c-0.17-3.87-0.81-7.96-4.12-10.82c-0.99,1.15-2.06,2.18-2.03,3.94c0.02,1.34-1.17,2.32-2.29,2.01
	c-1.36-0.38-0.32-1.56-0.11-2.42c0.28-1.11,0.39-2.28,1.12-3.24c0.29-0.37,0.56-1.16,0.03-1.19c-3.09-0.13-1.65-1.31-0.7-2.52
	c0.79-1.02,0.14-1.37-0.84-1.36c-0.66,0.01-1.32,0.12-2.06,0.2c-0.25-0.9,1.56-2-0.35-2.8c-1.31-0.54-0.14-1.19,0.26-1.73
	c0.34-0.47,0.8-0.95,0.46-1.55c-0.44-0.78-1.16-0.41-1.8-0.28c-2.3,0.48-4.71,0.6-6.57,2.53c-0.38-1.23,0.06-2,0.37-2.79
	c0.61-1.6,2.57-3.37-0.66-4.46c-0.25-0.08-0.48-0.92-0.37-1.3c0.75-2.65-0.9-4.46-1.94-6.59c-0.78-1.61-2.02-1.7-3.22-1.69
	c-1.58,0.01-1.12,1.63-1.13,2.46c-0.01,2.11-0.88,3.89-1.52,5.78c-1.49,0.19-1.31-2.59-2.89-1.7c-1.79,1.01,0.37,2.61-0.3,4.05
	c-1.78-0.36-2.4-2.45-4.35-2.85c-0.49,2.1,0.14,4.22,0.74,5.98c0.52,1.53,0.21,2.97,0.51,4.43c0.37,1.8-1.54,2.74-3.38,1.8
	c-1.18-0.6-2.23-1.46-3.86-1.1c0.59,2.23,1.94,3.94,3.13,5.76c1.16,1.77,0.57,4.16,1.86,6.1c-3.01-1.06-6.17-1.04-8.92-2.92
	c-4.16-2.84-4.79-1.8-5.46,3.03c-0.45,3.28-2.82,4.29-4.29,6.34c-0.43,0.59-1.41,0.67-1.82,0.13c-1.14-1.52-4.56-2.13-2.22-5.18
	c0.25-0.32,0.36-1.06,0.17-1.37c-1.79-2.87-1.31-6.66-3.96-9.21c-1.37-1.32-1.27-3.16-0.66-4.89c0.49-1.4,0.44-2.57-0.78-3.64
	c-1.79-1.57-1.28-4.66-3.94-5.88c-0.8,1.72-2.48,3.05-1.82,5.37c0.15,0.55-0.61,1.14-1.22,1.48c-0.87,0.47-1.37,1.24-1.04,2.15
	c1.26,3.53-0.29,6.31-2.18,9.05c-0.31,0.45-0.43,1.05-0.53,1.59c-0.39,2.17-0.38,2.17-3.92,2.23c4.71-1.22,1.2-5.66,4.48-6.88
	c-0.95-1.25-1.86-0.51-2.64-0.67c-0.97-0.19-2.26,0.96-2.82-0.89c-0.46-1.51-1.35-2.87,0.64-4.01c2.63-1.52,2.58-4.44,3.31-6.93
	c0.27-0.91-0.48-1.02-1.17-1.24c-4.94-1.63-6.08-5.42-2.63-9.41c1.15-1.33,1.28-2.61,1.35-4.49c-1.78,1.16-3.06,2.14-5.31,1.45
	c-2.17-0.67-1.82,1.99-2.16,3.78c-1.37-1.3-3.32-1.8-1.46-4.02c0.98-1.17,0.46-2.77,0.08-4.18c-0.07-0.28-0.03-0.59-0.13-0.85
	c-0.43-1.09,1.78-2.7-0.08-3.13c-1.4-0.32-3.03,0.91-3.92,2.6c0.22-0.84,0.21-1.85,0.69-2.5c2.07-2.85,0.19-5.27-0.69-7.79
	c-0.11-0.31-0.54-0.7-0.83-0.71c-1.52-0.02-2.77-0.35-2.56-3.07c-1.59,2.73-2.67,4.52-0.93,6.74c-1.25,0.2-1.32-1.44-2.52-0.93
	c0.19,1.42,0.3,2.86-0.04,4.37c-0.31,1.37,0.53,2.78,1.29,4.37c-1.38,0.03-3.32-2.42-3.38-0.09c-0.05,1.93-2.13,1.23-2.06,2.8
	c0.08,1.92-1.21,2.53-3.19,1.75c0.21,1.16,0.39,1.99,0.5,2.83c0.1,0.76,0.12,1.53,0.2,2.51c-1.27-0.18-2.43-0.34-3.58-0.52
	c-0.61-0.09-1.24-0.89-1.81-0.12c-0.42,0.57,0.09,1.33,0.01,1.94c-0.2,1.56,3.46,2.07,1.25,3.64c-0.75,0.53-3.04,0.95-4.67-0.06
	c1.49,3.13,0.79,7.11,4.68,9.04c1.07,0.53,1.02,2.91,0.62,4.1c-0.4,1.2-1.81-0.13-2.78-0.18c-1.98-0.1-3.63-0.86-5.52-2.79
	c0.98,5.13-3.82,6.99-4.25,10.99c-0.75-1.63-0.85-3.17-0.5-5.1c-1.94,0.97-3.18,2.03-2.84-1.47c0.19-1.99,0.86-3.28,1.65-4.82
	c1.29-2.48,1.14-5.44,3.6-8.14c-3.39,0.36-3.81,2.9-6.18,4.16c0.14-8.17-2.11-15.67-2.58-23.46c-0.29,0.01-0.59,0.02-0.88,0.03
	c0,2.78,0.06,5.56-0.04,8.33c-0.02,0.7,0.86,2.53-1.44,1.59c-0.85-0.35-0.52,0.74-0.35,1.17c1.31,3.42-0.29,6.87,0.11,10.3
	c0.08,0.72,0.25,2.01-0.9,2.13c-0.87,0.09-0.94-1.07-1.29-1.72c-0.39-0.73-0.51-1.71-1.75-1.76c-0.69,1.71-0.03,3.1,0.9,4.5
	c0.41,0.61,0.95,1.46,0.2,2.09c-0.67,0.57-1.13-0.37-1.7-0.58c-1.11-0.42-1.92-2.46-2.91-1.61c-1.13,0.97,0.16,2.54,0.84,3.6
	c1.6,2.53,1.1,4.82-0.45,7.08c-1.04-0.53-0.6-3.06-2.01-2.47c-1.42,0.59,0.03,2.41-0.11,3.63c-0.43,3.79,2,6.87,2.32,10.46
	c0.14,1.6,2.21,2.11,2.58,3.71c0.13,0.55,0.76,1.32,0.58,1.56c-1.52,2.01-0.09,3.94,0.54,6.46c-6.1-2.86-5.96-9.83-10.88-13.04
	c0.08,1.84,1.55,3.92-1.05,4.97c-0.13,0.05-0.02,1.14,0.23,1.6c1.46,2.68,0.33,5.26-0.2,7.86c-0.2,0.96-0.67,1.7-1.79,1.02
	c-0.81-0.49-1.32-1.18-0.59-2.14c0.46-0.61,0.99-1.18,1.4-1.83c0.39-0.62,1.2-1.24,0.65-2.04c-0.53-0.77-1.21-0.11-1.8,0.13
	c-1.21,0.5-1.64,0.19-1.33-1.13c0.24-1.02,0.4-2.05,0.55-3.09c0.54-3.82-0.79-7.19-2.72-10.34c-1.37-2.23-3.58-1.15-5.45-0.91
	c-1.21,0.16-2.36,0.74-3.83,1.22c0.42-1.47,0.31-2.64,2.45-2.34c1.63,0.23,3.65-3.47,2.66-4.84c-1.12-1.55-1.93-3.42-3.63-4.53
	c-3.64-2.39-3.91-3.69-1.54-7.3c0.56-0.86,1.61-1.8,0.69-2.8c-1.14-1.24-2.07-0.02-2.91,0.7c-0.96,0.83-1.75,0.8-2.28-0.38
	c-0.41-0.91-1.45-0.85-2.16-1.63c1.64-0.18,2.82-0.87,3.4-2.34c0.76-1.91-0.76-2.47-1.9-3.33c-1.09-0.83-0.95-2.27-1.25-3.44
	c-0.38-1.43,0.02-2.99-1.59-4.07c-1.14-0.76,0.24-1.41,0.56-2.11c0.53-1.16,0.88-2.4,0.28-3.61c-0.63-1.29-1.67-0.26-2.57-0.25
	c0.34-1.89-0.08-3.75-0.05-5.62c0.02-1.51-2.25-2.37-2.38-4.24c-0.02-0.27-0.85-0.14-0.9,0.24c-0.23,1.73-2.7,2.21-2.28,4.39
	c0.18,0.95-0.89,1.65-1.67,2.21c-2.13,1.53-2.43,3.45-1.44,5.77c1.42,3.36,0.61,5.71-2.67,7.75c-0.5,0.31-0.69,0.7-0.61,1.17
	c0.58,3.57-1.5,6.34-2.79,9.35c-0.46,1.08-0.27,2.03,0.12,3.06c0.34,0.91,1.96,1.82,0.2,2.85c-1.02,0.6-2.07,2.65-3.27,0.12
	c-0.07-0.16-0.72-0.14-1.06-0.06c-0.88,0.22-1.93,1.12-2.53-0.12c-0.55-1.14,1-1.14,1.44-1.8c0.47-0.72,1.11-1.33,1.57-2.05
	c0.36-0.55,0.74-1.23,0.17-1.85c-0.48-0.53-1.07-0.21-1.6,0.02c-1.93,0.84-4.21,0.14-6.14,1.68c-0.45-1.78,0.06-3.14,0.41-4.49
	c0.13-0.51,0.86-0.95,0.38-1.53c-0.47-0.57-1.1-0.2-1.56,0.1c-1.78,1.14-2.24,0.55-2.38-1.4c-0.06-0.8-0.18-2.93-2.31-1.7
	c-0.73,0.42-1.07-0.1-0.99-0.81c0.07-0.66,1.16-1.36,0.02-1.95c-0.93-0.48-1.85-0.28-2.66,0.46c-0.4,0.36-0.77,0.92-1.53,0.6
	c-0.49-1.28,0.91-2,1.01-3.11c0.08-0.9,1.16-2.1-0.85-2.34c-0.97-0.12-0.43-0.81-0.19-1.3c0.37-0.74,1.3-1.21,1.07-2.24
	c-0.19-0.05-0.37-0.16-0.52-0.14c-1.03,0.18-1.48,2.18-2.5,1.38c-1.07-0.85,0.36-1.81,0.84-2.67c0.2-0.37,0.3-0.9-0.12-1
	c-1.65-0.4-1.16-2.04-2.01-3.32c-0.77,2.27-2.01,3.31-4.39,2.58c-1.41-0.43-1.06,0.91-1.07,1.71c-0.01,1.18,0.14,2.34-1.68,2.34
	c-1.17,0-0.61,0.8-0.42,1.45c0.62,2.15,2.4,3.89,2.32,7.21c-1.14-2.85-3.26-3.01-4.98-3.85c-0.43-0.21-0.92-0.43-1.35-0.1
	c-0.48,0.38-0.25,0.89-0.03,1.31c0.91,1.73,1.03,3.36,0.37,5.34c-0.47,1.41,0.46,2.97,2.33,3.58c-0.85,0.68-1.83,0.42-2.42,1.19
	c-0.5,0.65-1.22,1.47-2.19,0.96c-1.11-0.57,0.18-1.38,0-1.95c-0.42-1.34-1.59-2.75-2.85-1.91c-2.61,1.73-4.3,0.46-6.14-1.06
	c-0.28-0.23-0.65-0.34-1.69-0.86c1.52,4.48,3.98,7.57,5.96,11.18c-1.52,2.47-4.56,3.64-7.95,4.21c-0.76,0.13-0.78,0.46-0.66,1.39
	c0.58,4.3,3.42,6.47,6.97,8.12c0.14,0.07,0.2,0.3,0.35,0.54c-0.25,0.94-2.69,0.81-1.44,2.68c0.16,0.23-0.93,0.47-1.49,0.47
	c-1.34,0.01-2.68-0.03-4.01-0.08c-0.69-0.03-1.73-0.26-1.72-0.79c0.05-2.35-2.23-4.15-1.87-6.23c0.55-3.22-0.98-2.11-2.46-1.63
	c-0.72,0.23-1.43,0.49-2.46,0.85c1.31-4.53-0.5-8.34-1.9-12.22c-0.25-0.69-0.32-1.56-1.47-1.34c-1.09,0.21-1.43,0.95-1.4,1.88
	c0.04,1.18-0.17,2.3-0.57,3.39c-0.15,0.42-0.35,1.15-0.91,0.84c-3.05-1.66-1.4,1.16-1.9,2.01C10.7,46,10.36,44.7,9.02,44.86
	c0.25,2.59,0.54,5.12,0.72,7.66c0.16,2.13-0.18,3.73-2.85,2.04c-0.27-0.17-0.84-0.26-1.03-0.1c-0.53,0.46-0.25,1.11,0,1.59
	c1.42,2.66,2.01,5.54,2.49,8.81c-2.23-1.06-4.31-2.04-6.46-3.05c-0.4,1.45,0.25,2.41,0.79,3.21c1.51,2.27,2.34,4.58,1.58,7.33
	c-0.36,1.3,0.36,2.19,1.4,2.9c0.56,0.38,1.22,0.89,0.59,1.61c-0.59,0.67-1.27,0.18-1.77-0.27c-1.72-1.55-3.59-2.82-6.15-3.5
	c-0.04,2.03,1.14,3.37,2.02,4.69c1.06,1.59,0.99,2.81,0.07,4.45c-0.62,1.09-2.45,2.01-1.62,3.43c1.13,1.94,1.9,4.25,4.13,5.39
	c0.33,0.17,0.66,0.35,1.02,0.54c-0.84,2.19-2.53,1.7-4.13,1.59c-0.83-0.06-1.88-0.27-2.35,0.64c-0.53,1.03,0.38,1.64,1.08,2.06
	c1.77,1.09,0.61,2.27-0.01,3.12c-0.87,1.18-1.01,2.16-0.32,3.42c0.53,0.96,1.81,1.89,1,3.07c-0.88,1.28-2.33,0.09-3.51,0.33
	c0,13.66,0,27.32,0,40.99c1.34,0.07,2.68,0.21,4.02,0.21c212.07,0.01,424.14,0.01,636.21,0c1.3,0,2.6-0.13,3.9-0.21
	c1.3,0.08,2.6,0.21,3.9,0.21c212.07,0.01,424.14,0.01,636.21,0c1.3,0,2.6-0.13,3.9-0.21c1.3,0.08,2.6,0.21,3.9,0.21
	c212.07,0.01,424.14,0.01,636.21,0c1.34,0,2.68-0.14,4.02-0.21c0-17.9,0-35.79,0-53.69C1926.89,92.64,1925.77,92.15,1924.4,91.55z
	 M147.97,59.38c-0.75-2.73-0.17-4.79,0.62-7.14c-0.28,2.37,1.97,3.91,1.7,6.54c-0.19,1.9,2.41,3.1,4.68,3.65
	C151.22,64.69,148.99,63.13,147.97,59.38z M321.92,72.36c-0.5,1.46-0.19,3.38-1.99,4.23c-0.63,0.3-1.57,0.47-1.86-0.09
	c-0.6-1.18-2.41-2.11-1.54-3.66c1.47-2.62,0.25-3.98-1.87-5.21c-0.56-0.33-1.05-0.9-0.9-1.67c0.09-0.45,0.47-0.56,1.12-0.47
	c0.38,0.25,1.01,0.54,1.47,1c1.28,1.27,2.42,2.65,4.24,3.29C321.64,70.15,322.28,71.28,321.92,72.36z M791.98,59.38
	c-0.75-2.73-0.17-4.79,0.62-7.14c-0.28,2.37,1.97,3.91,1.7,6.54c-0.19,1.9,2.41,3.1,4.68,3.65
	C795.23,64.69,793.01,63.13,791.98,59.38z M965.93,72.36c-0.5,1.46-0.19,3.38-1.99,4.23c-0.63,0.3-1.57,0.47-1.86-0.09
	c-0.6-1.18-2.41-2.11-1.54-3.66c1.47-2.62,0.25-3.98-1.87-5.21c-0.56-0.33-1.05-0.9-0.9-1.67c0.09-0.45,0.47-0.56,1.12-0.47
	c0.38,0.25,1.01,0.54,1.47,1c1.28,1.27,2.42,2.65,4.24,3.29C965.65,70.15,966.3,71.28,965.93,72.36z M1436,59.38
	c-0.75-2.73-0.17-4.79,0.62-7.14c-0.28,2.37,1.97,3.91,1.7,6.54c-0.19,1.9,2.41,3.1,4.68,3.65
	C1439.25,64.69,1437.03,63.13,1436,59.38z M1609.95,72.36c-0.5,1.46-0.19,3.38-1.99,4.23c-0.63,0.3-1.57,0.47-1.86-0.09
	c-0.6-1.18-2.41-2.11-1.54-3.66c1.47-2.62,0.25-3.98-1.87-5.21c-0.56-0.33-1.05-0.9-0.9-1.67c0.09-0.45,0.47-0.56,1.12-0.47
	c0.38,0.25,1.01,0.54,1.47,1c1.28,1.27,2.42,2.65,4.24,3.29C1609.67,70.15,1610.31,71.28,1609.95,72.36z"/>
</svg>
